<svg width="35" height="66" fill="none" xmlns="http://www.w3.org/2000/svg"><path d="M.004 39.229H34.89c0 1.319.106 2.602-.028 3.858-.15 1.393-1.284 2.246-2.8 2.262-2.806.028-5.61.008-8.42.012-2.09.004-2.95.86-2.95 2.938-.004 5.042 0 10.084-.004 15.123 0 1.97-.625 2.574-2.627 2.578-.463 0-.925.004-1.387 0-1.707-.012-2.382-.683-2.382-2.416-.008-4.877-.004-9.753-.004-14.63 0-.328.012-.66-.004-.987-.075-1.682-1.007-2.598-2.706-2.61-2.805-.02-5.61-.008-8.419-.02C1.035 45.33.02 44.315.004 42.174c-.008-.951 0-1.903 0-2.945zm34.926-3.85H0v3.048h34.93V35.38zm-21.364-1.113H0V7.36l13.566 5.425v21.48z" fill="#111526"/><path d="M17.876 34.266H34.93V0L17.876 7.36v26.906z" fill="#878886"/><path d="M23.379 34.266H9.102V20.513l14.277-3.665v17.418z" fill="#973B29"/><path d="M30.11 15.905h-2.453v2.452h2.454v-2.452zm0 4.908h-2.453v2.452h2.454v-2.452zm-12.234 4.742h-2.453v2.452h2.453v-2.452z" fill="#fff"/></svg>