<svg width="70" height="95" fill="none" xmlns="http://www.w3.org/2000/svg"><path d="M0 35.615c.078-2.723.073-5.446.741-8.101C3.717 15.689 10.805 7.376 21.89 2.557 26.465.567 31.267-.15 36.269.026c6.09.213 11.736 1.849 16.893 5.019 8.63 5.303 13.966 13.064 16.264 22.977a22.04 22.04 0 01.572 5.285c-.03 2.27-.026 4.544-.16 6.809-.18 2.99-1.114 5.807-2.216 8.562-2.404 6.001-6.227 10.917-11.247 14.92-.894.711-1.778 1.453-2.572 2.275-1.427 1.477-2.474 3.213-2.749 5.29-.177 1.332-.18 2.69-.212 4.04-.076 3.357-.12 6.715-.196 10.072-.006.275-.123.57-.259.817-1.086 1.987-2.886 2.705-5 2.662-1.119-.022-1.711.358-2.236 1.38-1.157 2.25-3.07 3.723-5.424 4.583-.494.18-1.053.2-1.584.258-.355.039-.718.01-1.076.021-3.935.113-6.526-2-8.359-5.248-.4-.708-.743-1.034-1.566-.98-.77.049-1.567-.044-2.33-.194-1.36-.271-2.368-1.1-2.994-2.334-.221-.435-.31-.977-.325-1.473-.094-3.01-.149-6.021-.22-9.033-.023-1.02-.062-2.04-.084-3.06-.06-2.886-1.308-5.237-3.302-7.2-.966-.951-2.064-1.764-3.105-2.638C6.027 57.159 1.929 49.908.35 41.22.018 39.394.106 37.486 0 35.615zm44.65 37.952c.034-.352.071-.66.093-.973.31-4.486 2.054-8.326 5.19-11.504.835-.847 1.813-1.554 2.733-2.316C60 52.708 64.008 45.01 64.057 35.33c.03-6.039-1.613-11.57-5.062-16.467-5.459-7.748-12.87-12.088-22.373-12.703-5.369-.348-10.412.753-15.098 3.3-10.236 5.56-17.177 16.517-15.171 30.7.892 6.305 3.886 11.693 8.364 16.184 1.408 1.41 3.011 2.62 4.521 3.927 3.565 3.083 5.514 7.016 6.041 11.697.059.53.106 1.061.159 1.6H44.65z" fill="#fff"/><path d="M50.39 25.39c.317.625.658 1.222.927 1.848.37.86.702 1.737 1.02 2.617.233.646.16.753-.462 1.065-.45.228-.911.445-1.327.728-2.435 1.665-2.047 5.642.677 6.955 1.543.743 1.421.589.821 2.18-.427 1.134-.984 2.217-1.488 3.32-.047.102-.13.186-.182.26-.634-.224-1.228-.51-1.855-.641-2.23-.465-3.802.696-4.669 2.753-.456 1.085-.217 2.283.34 3.34.225.427.174.697-.232.87-1.38.583-2.764 1.154-4.158 1.706-.496.196-.698-.148-.845-.562-.479-1.352-1.361-2.311-2.743-2.736-1.886-.582-3.857.263-4.78 2.02a6.731 6.731 0 00-.21.447c-.441.995-.502 1.062-1.496.675-1.259-.49-2.486-1.068-3.726-1.61-.354-.156-.405-.382-.225-.741.421-.845.727-1.725.602-2.702-.27-2.107-2.69-4.496-5.69-3.215-.314.135-.616.293-.973.463-.21-.354-.449-.672-.6-1.028a88.013 88.013 0 01-1.362-3.382c-.26-.69-.173-.775.492-1.145.58-.322 1.206-.624 1.667-1.085 2.027-2.015 1.45-5.325-1.106-6.587-1.463-.722-1.39-.538-.816-2.126.369-1.016.833-2 1.3-2.978.322-.672.473-.713 1.155-.387 1.206.577 2.408.67 3.623.05 2.041-1.04 2.869-3.394 1.937-5.494-.376-.848-.372-.94.447-1.32a47.502 47.502 0 013.283-1.407c.95-.358 1.107-.243 1.497.722 1.046 2.577 4.285 3.435 6.388 1.641.492-.419.808-1.054 1.187-1.601.129-.186.202-.412.3-.62.14-.3.378-.424.68-.3a364.41 364.41 0 014.23 1.792c.295.126.334.383.228.664-.074.2-.166.394-.252.59-1.222 2.803 1.147 6.092 4.158 5.722.616-.075 1.2-.394 1.8-.601.13-.038.247-.087.437-.16zm-15.633 3.954c-2.816-.02-5.259 2.53-5.28 5.51-.022 2.962 2.631 5.708 5.515 5.71 2.957 0 5.602-2.665 5.61-5.651.006-2.436-1.75-5.63-5.845-5.569z" fill="#fff"/></svg>