<svg width="101" height="87" fill="none" xmlns="http://www.w3.org/2000/svg"><path d="M22.535 40.21c2.21 4.846 4.407 9.658 6.6 14.468l.122-.008c.042-.247.102-.494.125-.743.183-2.143.252-4.304.57-6.425.274-1.817-.294-3.5-.472-5.245-.064-.647.111-.884.772-.88 1.622.008 3.246.004 4.868-.006.54-.004.788.231.7.765-.182 1.119-.398 2.231-.579 3.35a3.485 3.485 0 00-.012.846c.207 2.426.421 4.85.639 7.276.03.347.086.69.153 1.2.157-.264.258-.399.326-.547 1.7-3.724 3.401-7.447 5.098-11.17.38-.836.763-1.674 1.122-2.517.135-.317.288-.376.615-.25 4.59 1.778 9.185 3.541 13.775 5.317a6.929 6.929 0 012.956 2.185c.31.39.427.968.528 1.482.802 4.111 1.58 8.228 2.36 12.343.57 3.017 1.13 6.037 1.694 9.056.23 1.229.462 2.458.681 3.689.403 2.255-.304 4.157-1.926 5.724a270.902 270.902 0 01-5.376 5.046c-.715.655-1.662.794-2.585.814-1.995.042-3.991.018-5.988.01-1.16-.004-1.878-.659-1.896-1.814a211.235 211.235 0 01-.002-6.268c.012-.811.439-1.438 1.183-1.787a190.84 190.84 0 014.43-2.022c.369-.163.486-.406.51-.77.163-2.33.336-4.659.502-6.986.133-1.864.276-3.726.387-5.592.092-1.58-1.264-2.936-2.908-2.936-7.666 0-15.331.004-22.998.004-4.882 0-9.762.02-14.644-.01-1.743-.012-3.212 1.472-2.968 3.298.216 1.617.232 3.26.349 4.89.113 1.597.245 3.191.36 4.788.059.8.105 1.599.135 2.398.017.448.12.763.6.966 1.45.612 2.878 1.277 4.307 1.94.806.373 1.225 1.04 1.233 1.912.02 2.072.02 4.145.002 6.218-.01 1.05-.73 1.763-1.785 1.773-2.048.018-4.093.02-6.14-.004-1.42-.016-2.543-.673-3.534-1.657-1.4-1.39-2.875-2.703-4.26-4.107-.604-.613-1.106-1.34-1.579-2.063-.715-1.092-.637-2.357-.478-3.554.252-1.916.657-3.814 1.014-5.716.486-2.589.987-5.175 1.483-7.762.552-2.88 1.106-5.762 1.654-8.642.206-1.08.46-2.155.576-3.243.123-1.127.748-1.906 1.612-2.472a15.69 15.69 0 012.825-1.495c4.221-1.665 8.467-3.27 12.706-4.894.17-.07.347-.11.558-.173z" fill="#973B29"/><path d="M45.55 85.97H19.715v-.8l.006-7.922c.002-1.173-.497-1.99-1.616-2.457-1.235-.514-2.438-1.106-3.665-1.644-.332-.147-.485-.332-.501-.71a389.115 389.115 0 00-.327-5.944c-.106-1.729-.231-3.458-.354-5.187-.049-.69.092-.85.82-.85 6.558-.002 13.115 0 19.673-.002 5.787-.002 11.572-.008 17.358-.01.844 0 .95.102.899.916-.143 2.364-.296 4.728-.435 7.091a188.87 188.87 0 00-.206 3.997c-.012.335-.14.514-.437.645-1.271.562-2.523 1.166-3.804 1.706-1.038.438-1.552 1.218-1.56 2.292-.018 2.874.01 5.748.018 8.622 0 .07-.018.136-.036.257zm-7.982-71.585c1.237-3.506 2.148-7.099 2.79-10.909.577.454 1.093.81 1.552 1.227 2.188 1.993 3.766 4.38 4.56 7.242.207.751.312 1.535.425 2.31.064.444.15.837.53 1.137.647.51.685 1.283.748 2.006.072.847.074 1.7.068 2.552-.004.683-.083.738-.754.738-1.04 0-2.081-.023-3.119.01-.223.008-.524.152-.642.33-.317.475-.718.634-1.272.632a7243.88 7243.88 0 00-19.778-.006c-.487 0-.858-.16-1.072-.591-.149-.301-.366-.386-.687-.381-1.09.014-2.182-.015-3.27.012-.417.01-.612-.157-.592-.54.062-1.266.114-2.531.241-3.79.033-.312.274-.663.522-.878.395-.344.512-.761.564-1.233.381-3.43 1.83-6.356 4.242-8.81.675-.687 1.432-1.292 2.236-1.907.707 3.732 1.614 7.361 2.872 10.894.044-.008.088-.016.133-.027-.087-.664-.17-1.329-.262-1.992-.355-2.526-.742-5.049-1.056-7.58-.113-.9-.075-1.825-.06-2.736.005-.47.29-.8.729-.993C28.654.47 30.159.092 31.729.02c1.94-.09 3.84.118 5.682.793 1.179.432 1.556.996 1.479 2.26-.212 3.488-.838 6.918-1.364 10.365-.047.307-.053.622-.079.931.038.006.079.012.121.016zM18.955 22.34c.765-.022 1.475-.194 2.085.466.244.263.756.384 1.147.386 6.84.022 13.68.01 20.521.024.748.002 1.356-.193 1.916-.699.488-.438 1.11-.152 1.763-.207-.179 1.035-.324 2.003-.522 2.959-.145.7-.37 1.385-.54 2.084-.112.466-.348.795-.78 1.036-.215.12-.408.386-.487.625-.898 2.741-2.311 5.18-4.306 7.268-.598.625-1.261 1.195-1.932 1.741-1.07.872-2.267 1.494-3.693 1.48-1.32-.012-2.646-.004-3.96-.124-1.215-.11-2.153-.88-3.056-1.623-2.867-2.362-4.806-5.344-5.93-8.873-.068-.218-.3-.433-.512-.548-.389-.207-.614-.496-.703-.912-.346-1.612-.693-3.223-1.036-4.836-.008-.058.015-.126.025-.247zm63.587 9.57v-9.276c0-.619.151-.778.768-.778 5.62 0 11.237 0 16.857.004.679 0 .832.159.832.82l.002 18.404c0 .791-.085.877-.851.877-5.62.003-11.237.003-16.856.005-.62 0-.758-.135-.758-.778-.002-3.093 0-6.183 0-9.276.002-.002.004-.002.006-.002zm9.208-4.013v.006c2.096 0 4.191-.01 6.287.008.437.004.6-.146.59-.58a61.235 61.235 0 01-.006-2.506c.006-.41-.173-.563-.574-.563-4.191.008-8.382.012-12.573.006-.42 0-.566.175-.562.57.01.82.012 1.637-.01 2.457-.012.446.143.616.612.61 2.08-.02 4.157-.008 6.236-.008zm-3.207 8.71c0-.819-.01-1.636.004-2.456.006-.333-.093-.49-.456-.482a94.19 94.19 0 01-2.716.01c-.32-.002-.461.13-.461.444.002 1.671 0 3.34.002 5.01 0 .284.125.427.427.423.92-.006 1.844-.004 2.766.008.329.004.44-.137.436-.452-.01-.834-.002-1.67-.002-2.505zm8.253-6.732v.005c-.47 0-.94.012-1.407-.005-.298-.01-.431.099-.423.404.012.434.014.87-.002 1.302-.012.337.145.433.457.425.536-.016 1.072-.01 1.608-.01 1.665-.002 1.665 0 1.594-1.655 0-.016-.002-.034 0-.05.018-.295-.117-.425-.417-.42-.471.013-.94.005-1.41.005zm0 9.679v.008c.453 0 .904-.008 1.358.002.306.006.473-.099.465-.432-.012-.434-.014-.87.002-1.304.012-.319-.14-.397-.427-.395-.939.008-1.878.008-2.817-.006-.31-.004-.417.116-.407.413.014.434.014.87 0 1.304-.01.301.117.422.417.414.47-.013.94-.004 1.409-.004zm-10.063-7.55v-.006c.468 0 .937-.01 1.405.004.298.01.425-.1.415-.405a21.483 21.483 0 01-.002-1.3c.008-.285-.079-.428-.397-.424-.937.015-1.872.015-2.809.006-.294-.002-.44.107-.435.404.004.434.006.866-.002 1.3-.006.329.163.433.471.425.452-.014.903-.004 1.354-.004zm5.013 0v-.008c.468 0 .937-.008 1.405.004.292.008.43-.094.419-.403-.016-.432-.02-.868 0-1.3.016-.337-.133-.434-.447-.424-.518.017-1.038.005-1.556.005-1.674 0-1.674 0-1.596 1.678 0 .017.002.035 0 .05-.02.302.123.414.421.404.45-.018.903-.006 1.354-.006zm5.015 3.806v-.006c.47 0 .94-.008 1.407.002.31.006.467-.102.455-.436a21.553 21.553 0 01-.004-1.301c.006-.273-.1-.398-.38-.394-.956.008-1.91.012-2.866.008-.268 0-.405.099-.4.38.005.45.001.902-.007 1.351-.006.31.151.406.44.398.45-.01.904-.002 1.355-.002zm-6.778 1.629c0 .65-.018 1.23.016 1.807.007.109.22.29.343.293.953.027 1.906.033 2.86.005.122-.005.332-.215.342-.344.04-.48.034-.966.004-1.448-.006-.11-.176-.3-.27-.301-1.07-.02-2.138-.012-3.295-.012zm1.763-1.629v-.006c.47 0 .937-.008 1.407.002.3.006.423-.118.413-.418a25.546 25.546 0 01-.004-1.301c.006-.261-.075-.416-.365-.414-.955.006-1.91-.006-2.863.026-.121.004-.325.221-.339.354a7.538 7.538 0 00-.006 1.398c.012.128.22.329.35.341.468.042.94.018 1.407.018zM79.494 17.37c-.814 1.418-1.66 2.727-2.34 4.119-.578 1.187-1.436 1.928-2.639 2.408-1.023.408-2.005.93-2.986 1.438-.177.092-.369.355-.377.546-.042.95-.014 1.904-.032 2.856-.006.351.135.47.475.464.905-.016 1.812-.012 2.716-.012.651 0 .651.002.65.672-.003.886.007 1.772-.01 2.658-.009.367.124.496.497.492 1.827-.013 3.655.008 5.482-.009.411-.004.567.111.548.535-.03.65-.018 1.303.007 1.954.012.36-.091.504-.48.5-2.331-.018-4.66-.006-6.992-.026a.946.946 0 01-.604-.251 397.987 397.987 0 01-4.906-5.025c-.194-.2-.323-.54-.335-.822-.042-.927-.016-1.86-.016-2.891-.6.273-1.102.49-1.59.73-.254.125-.399.067-.517-.178-.988-2.026-1.975-4.053-2.973-6.075-.132-.271.02-.35.218-.446 2.021-.976 4.038-1.956 6.057-2.934.993-.48 2.005-.93 2.98-1.446.45-.237.884-.255 1.354-.187 1.753.253 3.508.506 5.26.763.16.032.315.096.553.167zm-4.32 4.23l.18.03c.386-.653.777-1.302 1.152-1.96.036-.065-.01-.194-.047-.28-.471-1.16-.473-1.16-1.728-1.333a8.987 8.987 0 00-.4-.044c-.283-.029-.57-.055-.95-.089l1.793 3.675z" fill="#973B29"/><path d="M68.142 16.761v-.538c.004-2.723.016-5.448 0-8.172-.002-.456.125-.592.59-.592 7.379.012 14.757.01 22.136-.002.405 0 .512.13.51.516-.008 4.11-.006 8.222.006 12.333 0 .351-.077.514-.474.5-.818-.028-1.638-.008-2.498-.008-.012-.233-.029-.414-.029-.592-.001-3.025-.014-6.05.01-9.074.005-.514-.15-.643-.654-.643-5.316.016-10.633.01-15.948.01-.657 0-.657.002-.659.67-.002 1.268.004 2.54-.016 3.809-.004.189-.08.478-.216.548-.828.438-1.682.828-2.528 1.23-.04.021-.095.005-.23.005zm-3.034 11.663c-.752.367-1.447.696-2.132 1.046-.383.195-.578.008-.838-.261a10.16 10.16 0 01-2.628-4.876c-.298-1.294-.3-1.294.883-1.904.373-.193.74-.4 1.13-.545.123-.044.407.05.461.16 1.048 2.106 2.074 4.223 3.124 6.38z" fill="#973B29"/></svg>