<svg width="84" height="78" fill="none" xmlns="http://www.w3.org/2000/svg"><path d="M65.52 62.627c.054 1.215.143 2.43.154 3.645.017 1.968-.279 3.88-1.134 5.678-.848 1.782-2.178 3.08-3.906 3.974-1.876.971-3.898 1.492-5.98 1.643-2.935.213-5.878.358-8.82.398-4.756.064-9.511.023-14.268.02-4.948-.006-9.896 0-14.843-.037-2.514-.02-5.027-.151-7.5-.648-1.815-.364-3.564-.91-5.121-1.96C2.076 73.976.894 72.034.406 69.675c-.865-4.186-.31-8.243 1.312-12.157 1.77-4.275 4.656-7.628 8.548-10.087 2.793-1.764 5.845-2.809 9.13-3.153.08-.008.158-.002.237 0 .136.507.217 1.037.419 1.514.655 1.556 1.891 2.57 3.3 3.384 2.16 1.248 4.521 1.844 6.978 2.11 3.242.355 6.43.084 9.524-.974 2.009-.687 3.852-1.668 5.188-3.41.59-.767.9-1.653 1.017-2.73 1.157.231 2.266.44 3.367.69.125.029.254.265.292.425.589 2.448 1.876 4.425 3.923 5.876 1.467 1.039 3.09 1.681 4.902 1.768.075.004.148.022.325.047-.602.611-1.144 1.166-1.69 1.716-1.236 1.24-2.464 2.486-3.72 3.706-.2.196-.524.262-.787.395-.25.126-.536.213-.733.399a67.825 67.825 0 00-2.08 2.075c-1.304 1.35-1.262 3.429.103 4.82a535.648 535.648 0 003.902 3.93c1.378 1.374 3.438 1.378 4.826.012a81.425 81.425 0 002.065-2.091c.163-.172.23-.435.34-.658.136-.276.211-.611.413-.822 1.194-1.236 2.416-2.441 3.629-3.658.067-.068.142-.126.213-.19.056.006.114.01.171.015zM16.365 17.893c.27-6.665 3.289-11.534 9.061-14.827l.625 3.574c.238 1.364.473 2.727.72 4.09.16.872.733 1.305 1.514 1.176.705-.118 1.1-.772.953-1.623-.475-2.728-.952-5.456-1.446-8.182-.075-.418-.01-.739.294-1.045.654-.657 1.42-1.044 2.35-1.05 1.618-.01 3.234-.008 4.853 0 .95.006 1.724.402 2.376 1.09.255.272.338.543.27.916-.4 2.202-.78 4.405-1.168 6.609-.098.555-.208 1.106-.304 1.662-.138.797.256 1.472.93 1.613.771.16 1.394-.263 1.55-1.12.427-2.345.826-4.694 1.238-7.038.032-.186.073-.372.13-.668 5.769 3.29 8.779 8.17 9.05 14.821.196 0 .382-.002.569 0 1.405.016 2.466 1.059 2.466 2.419 0 1.362-1.07 2.435-2.459 2.435-6.054 0-12.107-.013-18.162-.013-5.284 0-10.568.01-15.852.021-.874.002-1.601-.292-2.12-1.012-.557-.772-.629-1.627-.227-2.47.41-.861 1.12-1.347 2.095-1.376.218-.008.44-.002.694-.002z" fill="#fff"/><path d="M52.68 41.83c1.144 1.151 2.228 2.221 3.285 3.32.367.381.737.63 1.29.54.265-.043.55-.046.815 0 1.138.201 1.903-.317 2.709-1.093.86-.83 1.166-1.677 1.157-2.858-.008-1.085-.262-1.874-1.102-2.576-.969-.81-1.828-1.753-2.787-2.691.544-.536 1.011-1.014 1.505-1.463.096-.087.3-.095.446-.08 2.783.293 4.93 1.631 6.341 4.063 1.227 2.115 1.415 4.37.683 6.71-.045.14.065.392.184.512 1.903 1.935 3.817 3.858 5.728 5.783 3.168 3.19 6.343 6.372 9.496 9.576a3.376 3.376 0 01-.066 4.85c-1.34 1.283-3.421 1.217-4.757-.13-4.565-4.598-9.136-9.19-13.705-13.787-.486-.49-.97-.981-1.447-1.478-.195-.202-.375-.267-.673-.176-3.75 1.137-7.48-.293-9.496-3.65a7.432 7.432 0 01-1.06-3.474.79.79 0 01.165-.514c.396-.465.826-.896 1.29-1.384zm25.74 22.136c.006.879.763 1.625 1.636 1.616.874-.01 1.636-.768 1.632-1.631-.002-.896-.77-1.645-1.67-1.635-.875.012-1.606.764-1.598 1.65z" fill="#fff"/><path d="M80.15 52.542c-.592-.59-1.157-1.153-1.642-1.634.202-.72.483-1.384.544-2.066.04-.457-.173-.97-.384-1.405-.237-.49-.669-.646-1.178-.45-.437.167-.884.392-1.223.707-.888.828-1.718 1.72-2.554 2.567l-4.131-4.13c.548-.524 1.103-1.047 1.651-1.579.358-.346.7-.708 1.06-1.052.933-.896 1.068-1.635.487-2.817-.125-.255-.282-.495-.451-.787-.31.29-.575.54-.752.704-.788-.727-1.595-1.41-2.32-2.169-.37-.389-.234-1.147.202-1.592a260.834 260.834 0 013.502-3.507c.556-.546 1.388-.534 1.943.004.589.568 1.15 1.166 1.736 1.737.206.201.17.342-.02.516-.245.229-.476.472-.791.788.269.156.477.32.711.402.757.26 1.528.476 2.285.733.202.07.404.198.556.349a257.163 257.163 0 013.389 3.42c.744.768.936 1.782 1.105 2.782.575 3.413-.811 6.214-3.725 8.48zM56.28 69.453c-.416-.215-.847-.327-1.126-.598a195.822 195.822 0 01-4.046-4.055c-.694-.712-.653-1.716.05-2.418a290.84 290.84 0 011.74-1.722c.076-.075.174-.19.261-.191.905 0 1.367-.697 1.913-1.239a588.958 588.958 0 005.362-5.391c.464-.472 1.079-.43 1.63-.6.089-.027.252.114.348.21a827.585 827.585 0 014.07 4.1c.086.087.174.255.15.36-.164.675-.31 1.316-.875 1.86-2.02 1.942-3.973 3.953-5.944 5.948-.124.126-.244.317-.257.486-.038.485-.275.828-.619 1.147-.517.48-.974 1.027-1.51 1.482-.312.265-.731.404-1.146.62zm-7.025-44.256c-.229 1.393-.398 2.7-.665 3.987a28.483 28.483 0 01-2.105 6.353c-1.633 3.465-3.806 6.502-7.075 8.586-2.756 1.757-5.745 2.445-8.992 1.72-3.254-.728-5.784-2.593-7.896-5.09-2.395-2.833-3.964-6.115-4.902-9.69-.451-1.723-.71-3.497-1.053-5.25-.033-.17-.023-.35-.038-.609.626 0 1.224-.01 1.824.012.069.002.17.17.19.275.332 1.687.53 3.412 1 5.059 1.24 4.349 3.32 8.2 7.067 10.913 2.345 1.698 4.975 2.422 7.854 1.962 2.537-.407 4.648-1.674 6.455-3.475 2.568-2.558 4.204-5.672 5.176-9.13.486-1.727.727-3.524 1.096-5.287.027-.128.184-.315.292-.323.536-.03 1.078-.014 1.772-.014zM78.42 63.966c-.006-.886.723-1.638 1.597-1.65.902-.012 1.669.74 1.67 1.635.003.863-.757 1.621-1.631 1.63-.875.01-1.63-.736-1.636-1.615z" fill="#fff"/></svg>