<svg width="70" height="95" viewBox="0 0 70 95" fill="none" xmlns="http://www.w3.org/2000/svg">
<path d="M0 35.615C0.078427 32.8922 0.0725449 30.1693 0.741135 27.5137C3.71744 15.6888 10.8053 7.37586 21.889 2.55695C26.4652 0.56769 31.2669 -0.150104 36.2686 0.0258839C42.3584 0.239443 48.0052 1.87475 53.1617 5.04451C61.7926 10.3479 67.1276 18.1092 69.4255 28.0218C69.8294 29.7639 70.0216 31.5238 69.998 33.3074C69.9686 35.5775 69.9725 37.8515 69.8373 40.1156C69.6588 43.1054 68.7236 45.9232 67.6217 48.6777C65.2179 54.6791 61.3946 59.5949 56.3753 63.5972C55.4812 64.309 54.5969 65.0506 53.8029 65.8731C52.3755 67.3503 51.3285 69.0864 51.054 71.1627C50.8775 72.4954 50.8736 73.8539 50.8423 75.2025C50.7658 78.5601 50.7226 81.9177 50.6462 85.2753C50.6403 85.5502 50.5227 85.8448 50.3874 86.092C49.3012 88.0793 47.5013 88.7971 45.3877 88.7536C44.2681 88.7318 43.676 89.1115 43.1505 90.1338C41.9937 92.3841 40.0801 93.8572 37.7273 94.7174C37.2332 94.8974 36.6744 94.9171 36.1431 94.9745C35.7882 95.014 35.4255 94.9844 35.0667 94.9962C31.1316 95.1089 28.5415 92.9951 26.7083 89.7482C26.3083 89.0403 25.9652 88.714 25.1417 88.7674C24.3712 88.8169 23.5751 88.7239 22.8124 88.5736C21.4517 88.3027 20.444 87.4742 19.8185 86.2403C19.5969 85.8053 19.5087 85.2635 19.493 84.7672C19.3989 81.7576 19.344 78.746 19.2734 75.7344C19.2499 74.7141 19.2107 73.6937 19.1891 72.6734C19.1283 69.7884 17.8814 67.4373 15.8873 65.4737C14.9207 64.5226 13.8228 63.7099 12.7816 62.8359C6.02711 57.1588 1.9293 49.9077 0.350961 41.221C0.0176461 39.3938 0.105876 37.4857 0 35.615ZM44.6504 73.5672C44.6838 73.2152 44.721 72.9067 44.7426 72.5943C45.0524 68.1076 46.7974 64.2675 49.9325 61.0898C50.7677 60.2435 51.7461 59.5356 52.6657 58.7743C60.0006 52.7076 64.0082 45.0096 64.0572 35.3303C64.0866 29.2913 62.4436 23.7606 58.9947 18.8626C53.5362 11.1151 46.1249 6.77473 36.6215 6.15976C31.2532 5.81174 26.2103 6.91315 21.5243 9.46004C11.2876 15.0205 4.34682 25.9772 6.35259 40.1591C7.24469 46.465 10.2386 51.8534 14.7168 56.3441C16.1246 57.754 17.7284 58.9641 19.2381 60.2712C22.8026 63.3539 24.7516 67.287 25.279 71.9675C25.3378 72.4974 25.3849 73.0293 25.4378 73.5672C31.8708 73.5672 38.2292 73.5672 44.6504 73.5672Z" fill="white"/>
<path d="M50.3893 25.3896C50.7069 26.0145 51.0481 26.6116 51.3167 27.2385C51.6873 28.0986 52.0186 28.9746 52.3363 29.8546C52.5696 30.5012 52.497 30.6079 51.8755 30.9204C51.4245 31.1478 50.9638 31.3653 50.5481 31.6481C48.113 33.313 48.5012 37.2896 51.2246 38.6026C52.7676 39.3461 52.646 39.1918 52.0461 40.7836C51.6187 41.9167 51.0618 43.0003 50.5579 44.1037C50.5109 44.2045 50.4285 44.2895 50.3756 44.3627C49.7423 44.1393 49.1482 43.8525 48.5208 43.722C46.2915 43.2573 44.719 44.4181 43.8524 46.4746C43.3956 47.5602 43.6348 48.7585 44.1916 49.8144C44.4171 50.2415 44.3661 50.5124 43.9603 50.6844C42.5799 51.2678 41.1957 51.8392 39.8017 52.3909C39.3056 52.5867 39.1037 52.2426 38.9566 51.8293C38.4782 50.4768 37.5959 49.5178 36.2136 49.0926C34.3275 48.5113 32.357 49.3556 31.4335 51.1135C31.357 51.2579 31.2904 51.4101 31.2237 51.5604C30.7826 52.5551 30.7218 52.6223 29.7277 52.2347C28.469 51.7443 27.2416 51.1669 26.0024 50.6251C25.6476 50.4689 25.5966 50.2435 25.777 49.8836C26.1985 49.0392 26.5044 48.1593 26.3789 47.1825C26.1083 45.0746 23.6888 42.6859 20.689 43.9672C20.3753 44.1017 20.0734 44.2599 19.7165 44.4299C19.5067 44.076 19.2675 43.7576 19.1166 43.4017C18.6421 42.2825 18.1813 41.1574 17.7539 40.0204C17.4931 39.3302 17.5813 39.2452 18.246 38.8754C18.8264 38.5531 19.4518 38.2506 19.9126 37.7899C21.9399 35.7749 21.3635 32.4647 18.8068 31.2031C17.3441 30.4814 17.4167 30.6653 17.9911 29.0774C18.3597 28.0611 18.8244 27.0763 19.2911 26.0995C19.6126 25.4272 19.7636 25.3856 20.4459 25.7119C21.6517 26.2893 22.8536 26.3823 24.0692 25.7614C26.1103 24.7212 26.9377 22.3681 26.0064 20.2682C25.6299 19.4198 25.6338 19.3289 26.4534 18.9473C27.5318 18.445 28.6239 17.9605 29.7356 17.5413C30.6865 17.1834 30.8434 17.2981 31.2335 18.2631C32.2786 20.8396 35.5176 21.6978 37.6214 19.9043C38.1135 19.4851 38.4292 18.8504 38.8076 18.3026C38.937 18.1167 39.0096 17.8913 39.1076 17.6837C39.2488 17.3831 39.486 17.2586 39.7879 17.3831C41.2016 17.9704 42.6113 18.5696 44.0171 19.1747C44.3132 19.3012 44.3524 19.5583 44.2465 19.8391C44.172 20.0388 44.0799 20.2326 43.9936 20.4283C42.7721 23.2323 45.1406 26.5207 48.1522 26.1509C48.7678 26.0758 49.3521 25.7574 49.9521 25.5498C50.0815 25.5122 50.1991 25.4628 50.3893 25.3896ZM34.7569 29.3444C31.9413 29.3246 29.4983 31.8735 29.4768 34.8534C29.4552 37.8156 32.108 40.5622 34.9921 40.5641C37.9488 40.5641 40.5938 37.8986 40.6016 34.9127C40.6075 32.4766 38.8527 29.2831 34.7569 29.3444Z" fill="white"/>
</svg>
