<svg width="83" height="89" viewBox="0 0 83 89" fill="none" xmlns="http://www.w3.org/2000/svg">
<path d="M55.7442 79.3197C57.7664 81.3462 59.7478 83.3318 61.8491 85.4357C61.2723 85.6745 60.7453 85.9316 60.1934 86.1067C59.879 86.2068 59.5216 86.1954 59.1846 86.1954C40.9198 86.1977 22.6573 86.1931 4.39258 86.2022C2.44962 86.2022 1.04498 85.3834 0.318917 83.5707C0.0814183 82.977 0.0112997 82.2788 0.0112997 81.6305C-0.00453353 70.3833 -9.75066e-06 59.136 0.00225214 47.891C0.00225214 37.1942 -9.75087e-06 26.4974 0.00451403 15.8006C0.00451403 13.6694 1.06534 12.1478 2.99021 11.5473C3.37699 11.4267 3.80449 11.3995 4.21389 11.3904C5.19329 11.3676 6.17268 11.4108 7.14982 11.3722C7.66553 11.3517 7.82839 11.5018 7.82612 12.0363C7.80577 16.2577 7.81482 20.4791 7.81482 24.7028C7.81482 42.7462 7.81482 60.7873 7.81482 78.8307C7.81482 79.6563 7.81482 79.6563 8.61552 79.6563C23.8471 79.6563 39.0809 79.6608 54.3125 79.6472C54.801 79.6449 55.3823 79.8837 55.7442 79.3197Z" fill="white"/>
<path d="M83 78.8558C82.9299 80.5776 82.2626 82.106 81.2787 83.5026C79.5642 85.9408 77.4267 87.8582 74.527 88.743C72.67 89.3093 71.0482 88.9545 69.6209 87.5125C62.7335 80.548 55.8302 73.6018 48.8794 66.7011C47.6444 65.4751 47.0292 63.9626 46.3438 62.4614C44.0118 57.3575 41.7092 52.24 39.3976 47.127C39.1804 46.6448 38.9135 46.1762 38.7688 45.6736C38.6873 45.3916 38.7258 44.9958 38.8706 44.7456C39.0696 44.4022 39.4677 44.3999 39.8319 44.5636C41.2569 45.205 42.6818 45.8419 44.1046 46.4924C48.9835 48.7237 53.8669 50.9481 58.7345 53.2021C59.2705 53.45 59.7976 53.7957 60.2137 54.2119C67.393 61.3924 74.5496 68.5934 81.722 75.7807C82.5748 76.6314 82.9729 77.6435 83 78.8558ZM44.6022 50.2544C44.5456 50.3021 44.4891 50.3499 44.4303 50.3977C44.5434 50.682 44.6361 50.9754 44.7696 51.2506C46.4026 54.635 48.038 58.0194 49.6801 61.4015C50.0488 62.1635 50.4695 62.234 51.0011 61.5494C51.3539 61.0968 51.6299 60.56 51.838 60.0209C52.2858 58.8655 53.0639 58.1309 54.2288 57.7124C54.9028 57.469 55.5769 57.1119 56.1265 56.6547C56.7033 56.1748 56.5789 55.7904 55.9094 55.4766C53.0481 54.1323 50.1891 52.7836 47.3232 51.4507C46.4253 51.03 45.5092 50.6501 44.6022 50.2544ZM78.6165 81.3623C78.6368 80.5389 78.1211 80.009 77.3453 80.0545C75.9135 80.1364 74.2329 81.8104 74.1266 83.2569C74.0655 84.0939 74.5699 84.6216 75.4091 84.5989C76.8522 84.5602 78.5803 82.818 78.6165 81.3623Z" fill="white"/>
<path d="M31.7343 18.4141C26.3487 18.4141 20.9632 18.4141 15.5799 18.4141C13.1755 18.4141 11.7369 16.9744 11.7347 14.5748C11.7324 13.383 11.7256 12.1889 11.7369 10.9971C11.7573 9.09337 12.5738 8.18358 14.4263 7.79237C15.7269 7.51716 17.0252 7.18964 18.2761 6.74612C19.1944 6.42087 19.9114 5.70441 20.3887 4.84921C21.4585 2.93411 23.1346 1.79005 25.1273 1.13273C29.9904 -0.470775 34.8286 -0.432109 39.5627 1.65585C40.9832 2.28361 42.1254 3.2639 42.9329 4.64451C43.9734 6.42769 45.663 7.22148 47.6195 7.56038C48.3592 7.68775 49.1033 7.82877 49.8249 8.03347C50.9174 8.3428 51.5869 9.10929 51.6344 10.242C51.709 11.9615 51.7565 13.6901 51.648 15.405C51.5394 17.1473 49.9764 18.4051 48.1172 18.4096C44.1815 18.421 40.2458 18.4141 36.3124 18.4141C34.7833 18.4141 33.2588 18.4141 31.7343 18.4141ZM31.7185 10.731C33.9283 10.7333 35.7491 8.92506 35.7718 6.70518C35.7966 4.4671 33.8989 2.55427 31.6778 2.57929C29.4973 2.60431 27.681 4.47165 27.6855 6.68698C27.6878 8.90004 29.5109 10.7264 31.7185 10.731Z" fill="white"/>
<path d="M63.3872 51.6555C63.0569 51.3576 62.8217 51.1506 62.591 50.9368C61.3967 49.8382 59.8835 49.3219 58.4585 48.6487C57.6578 48.2711 56.8413 47.9299 56.0541 47.5228C55.8686 47.4273 55.7013 47.1498 55.6673 46.9314C55.6063 46.5448 55.6515 46.1399 55.6515 45.7419C55.6515 34.5902 55.6515 23.4407 55.6538 12.289C55.6538 11.3815 55.6538 11.3815 56.5857 11.3815C57.4701 11.3815 58.3545 11.3724 59.2411 11.3815C61.7021 11.4111 63.4256 13.1556 63.4256 15.6188C63.4279 27.4506 63.4279 39.2824 63.4256 51.1142C63.4234 51.2484 63.4053 51.3758 63.3872 51.6555Z" fill="white"/>
<path d="M16.0255 34.0828C16.0255 35.2292 16.0074 36.3755 16.0526 37.5196C16.0572 37.6447 16.4281 37.8539 16.6317 37.8585C18.1562 37.8858 19.6807 37.8721 21.2029 37.8721C21.6169 37.8721 22.0308 37.8698 22.4447 37.8767C22.8225 37.8835 23.0306 37.7152 22.9717 37.3285C22.879 36.7053 23.1663 36.2481 23.5395 35.7978C24.0145 35.2246 24.4533 34.6196 24.9509 33.9759C25.0255 34.1283 25.0843 34.192 25.0843 34.2534C25.0843 35.5203 25.1386 36.7917 25.0549 38.0541C24.9735 39.2777 24.123 39.9874 22.8994 39.9919C20.642 40.001 18.3824 40.001 16.125 39.9919C14.7724 39.9874 13.9491 39.1526 13.9445 37.7902C13.9355 35.5021 13.9332 33.2117 13.9468 30.9236C13.9536 29.7477 14.6005 28.913 15.736 28.8265C17.0004 28.731 18.2783 28.8038 19.7463 28.8038C19.1921 29.3042 18.7624 29.7022 18.3213 30.0889C17.1745 31.101 17.3102 30.8508 18.3213 31.7834C19.1921 32.5885 19.2012 32.5817 20.0743 31.772C21.6779 30.2845 23.2771 28.7924 24.8808 27.3049C25.6227 26.6158 26.5342 26.5794 27.016 27.2162C27.439 27.7735 27.3598 28.4672 26.7627 29.1108C24.9554 31.0623 23.0781 32.9524 21.3454 34.9676C19.9544 36.5848 18.4683 36.7781 17.0343 34.8698C16.7945 34.5514 16.4982 34.2762 16.2291 33.9805C16.1589 34.0146 16.0911 34.0487 16.0255 34.0828Z" fill="white"/>
<path d="M19.4568 55.67C18.3281 55.67 17.1994 55.6791 16.073 55.6677C14.8018 55.654 13.9445 54.8011 13.94 53.532C13.931 51.2256 13.9355 48.9193 13.9445 46.6107C13.9491 45.3666 14.691 44.4909 15.9395 44.4614C18.3258 44.4045 20.7166 44.4091 23.1029 44.4614C24.2678 44.4887 25.0391 45.2916 25.064 46.472C25.1138 48.8352 25.1205 51.1983 25.0753 53.5615C25.0504 54.8898 24.1683 55.6631 22.8451 55.6677C21.7141 55.6768 20.5854 55.6722 19.4568 55.67C19.4568 55.6722 19.4568 55.6722 19.4568 55.67ZM19.4455 53.0202C20.253 53.0202 21.0627 53.002 21.8702 53.027C22.3203 53.0407 22.4651 52.8542 22.4628 52.4243C22.4492 50.8549 22.4492 49.2878 22.4606 47.7184C22.4628 47.2726 22.3226 47.0702 21.8408 47.0747C20.2801 47.0952 18.7194 47.0929 17.161 47.0725C16.7221 47.0679 16.5525 47.2249 16.5548 47.6615C16.5661 49.2673 16.5661 50.8754 16.5525 52.4812C16.548 52.911 16.7357 53.0361 17.1338 53.0247C17.9028 53.0066 18.6742 53.0202 19.4455 53.0202Z" fill="white"/>
<path d="M19.5608 59.8253C20.6511 59.8253 21.7413 59.823 22.8338 59.8253C24.2158 59.8298 25.0414 60.6236 25.0866 62.0292C25.116 62.9163 25.0934 63.8056 25.0934 64.6949C25.0934 66.0368 25.1047 67.3811 25.0866 68.723C25.0663 70.2446 24.2746 71.0293 22.775 71.0338C20.6126 71.0407 18.4502 71.0429 16.2879 71.0316C14.6865 71.0247 13.9446 70.2696 13.94 68.6639C13.9355 66.4508 13.9355 64.24 13.9378 62.0269C13.94 60.6873 14.7837 59.8366 16.1205 59.8253C16.7041 59.8207 17.2854 59.8253 17.8689 59.8253C18.4321 59.8253 18.9976 59.8253 19.5608 59.8253ZM16.5548 65.4136C16.5548 66.2256 16.5616 67.0399 16.5525 67.8519C16.548 68.2522 16.6973 68.4273 17.1202 68.4228C18.6809 68.4068 20.2394 68.4046 21.8001 68.425C22.2887 68.4319 22.4696 68.2499 22.4651 67.7632C22.4493 66.2142 22.4493 64.6631 22.4651 63.1141C22.4696 62.6638 22.3316 62.4636 21.8544 62.4705C20.2756 62.4887 18.6968 62.4864 17.118 62.4705C16.7041 62.4659 16.5435 62.6206 16.5525 63.0345C16.5661 63.8261 16.5548 64.6198 16.5548 65.4136Z" fill="white"/>
<path d="M39.5853 32.8433C42.6524 32.8433 45.7173 32.8433 48.7844 32.8456C49.5263 32.8456 49.5354 32.8592 49.5354 33.6121C49.5354 34.2921 49.524 34.9745 49.5399 35.6546C49.5489 36.0503 49.4358 36.23 48.997 36.23C42.7135 36.2163 36.43 36.2141 30.1487 36.2232C29.685 36.2232 29.5131 36.0776 29.5357 35.6022C29.5674 34.8858 29.5764 34.1625 29.5357 33.446C29.5041 32.8979 29.7755 32.8342 30.2188 32.8365C33.3402 32.8479 36.4639 32.8433 39.5853 32.8433Z" fill="white"/>
<path d="M44.0254 67.1718C43.8218 67.1878 43.6409 67.2151 43.4599 67.2151C39.099 67.2173 34.7358 67.2173 30.3749 67.2151C29.5448 67.2151 29.5448 67.2105 29.5448 66.3667C29.5448 65.7048 29.5584 65.0429 29.538 64.3811C29.5267 64.0012 29.6466 63.8352 30.0492 63.8352C34.1093 63.8443 38.1716 63.8375 42.2317 63.8511C42.3968 63.8511 42.6434 63.983 42.7135 64.1241C43.1636 65.0361 43.5775 65.9687 43.996 66.8966C44.0231 66.9603 44.0118 67.0422 44.0254 67.1718Z" fill="white"/>
<path d="M36.9592 51.7031C36.7444 51.719 36.5453 51.7486 36.3485 51.7486C34.297 51.7509 32.2477 51.7395 30.1962 51.76C29.7144 51.7645 29.5154 51.6258 29.538 51.1163C29.5719 50.3794 29.5606 49.6402 29.5403 48.9032C29.5289 48.5211 29.6534 48.3505 30.0514 48.3528C31.7456 48.3642 33.4375 48.3483 35.1316 48.3687C35.3194 48.371 35.6021 48.4938 35.679 48.6439C36.1337 49.556 36.5408 50.4908 36.957 51.4211C36.9819 51.4825 36.9592 51.5666 36.9592 51.7031Z" fill="white"/>
</svg>
