<svg width="35" height="66" viewBox="0 0 35 66" fill="none" xmlns="http://www.w3.org/2000/svg">
<path d="M0.00393879 39.2288C11.725 39.2288 23.2644 39.2288 34.8907 39.2288C34.8907 40.5476 34.9974 41.8309 34.8631 43.0866C34.713 44.4804 33.5792 45.3333 32.0622 45.3491C29.2573 45.3767 26.4525 45.357 23.6437 45.3609C21.5539 45.3649 20.6927 46.2217 20.6927 48.2986C20.6887 53.3409 20.6927 58.3832 20.6887 63.4216C20.6887 65.3919 20.0645 65.996 18.0616 66C17.5994 66 17.1372 66.0039 16.675 66C14.9684 65.9881 14.2929 65.3169 14.2929 63.5835C14.285 58.707 14.2889 53.8306 14.2889 48.9541C14.2889 48.6264 14.3008 48.2947 14.285 47.967C14.2099 46.2849 13.2776 45.3688 11.5789 45.357C8.77403 45.3372 5.96918 45.3491 3.16038 45.3372C1.03502 45.3293 0.0197408 44.3146 0.00393879 42.1744C-0.00396219 41.2228 0.00393879 40.2712 0.00393879 39.2288Z" fill="#111526"/>
<path d="M34.9302 35.379H0V38.4273H34.9302V35.379Z" fill="#111526"/>
<path d="M13.566 34.2655H0V7.36011L13.566 12.7854V34.2655Z" fill="#111526"/>
<path d="M17.876 34.2655H34.9302V0L17.876 7.3601V34.2655Z" fill="#878886"/>
<path d="M23.379 34.2655H9.10193V20.5127L23.379 16.8485V34.2655Z" fill="#973B29"/>
<path d="M30.1107 15.9048H27.6574V18.3568H30.1107V15.9048Z" fill="white"/>
<path d="M30.1107 20.8128H27.6574V23.2649H30.1107V20.8128Z" fill="white"/>
<path d="M17.876 25.555H15.4227V28.0071H17.876V25.555Z" fill="white"/>
</svg>
