<svg width="101" height="87" viewBox="0 0 101 87" fill="none" xmlns="http://www.w3.org/2000/svg">
<path d="M22.5351 40.2103C24.7454 45.0564 26.9417 49.8683 29.1359 54.6782C29.1762 54.6762 29.2165 54.6722 29.2568 54.6702C29.2991 54.4232 29.3595 54.1761 29.3817 53.9271C29.565 51.7842 29.6335 49.6233 29.9519 47.5025C30.2259 45.685 29.6577 44.002 29.4804 42.2568C29.4159 41.6101 29.5912 41.3731 30.2521 41.3772C31.8741 41.3852 33.4981 41.3812 35.1201 41.3711C35.6601 41.3671 35.9079 41.6021 35.8192 42.1363C35.6379 43.2549 35.4223 44.3675 35.241 45.4862C35.1966 45.7613 35.2047 46.0525 35.2289 46.3317C35.4364 48.7577 35.65 51.1817 35.8676 53.6078C35.8978 53.9552 35.9542 54.2986 36.0207 54.8088C36.1779 54.5437 36.2786 54.4091 36.3471 54.2605C38.0477 50.5371 39.7483 46.8137 41.4448 43.0902C41.8256 42.2548 42.2084 41.4173 42.5671 40.5738C42.7021 40.2565 42.8552 40.1983 43.1816 40.3248C47.7715 42.1022 52.3675 43.8655 56.9574 45.6408C58.1401 46.0987 59.1375 46.8458 59.9132 47.8259C60.2235 48.2155 60.3404 48.7939 60.4411 49.308C61.243 53.419 62.0208 57.536 62.8005 61.6511C63.3707 64.6676 63.9309 67.6881 64.495 70.7066C64.7247 71.9357 64.9565 73.1647 65.1761 74.3958C65.5791 76.6512 64.8718 78.553 63.2499 80.1195C61.4828 81.8266 59.6875 83.5076 57.8741 85.1664C57.1589 85.8211 56.2119 85.9597 55.289 85.9798C53.2943 86.022 51.2976 85.9979 49.3008 85.9898C48.1402 85.9858 47.4229 85.3311 47.4048 84.1763C47.3726 82.0877 47.3726 79.997 47.4028 77.9084C47.4149 77.097 47.842 76.4704 48.5855 76.121C50.0544 75.4281 51.5313 74.7533 53.0163 74.0986C53.385 73.9359 53.5018 73.6929 53.526 73.3294C53.6892 70.9998 53.8625 68.6701 54.0277 66.3425C54.1607 64.4788 54.3038 62.6171 54.4146 60.7514C54.5073 59.1708 53.1513 57.8152 51.5071 57.8152C43.8405 57.8152 36.1759 57.8192 28.5092 57.8192C23.6272 57.8192 18.7471 57.8393 13.8651 57.8092C12.1222 57.7971 10.6534 59.2813 10.8972 61.1068C11.1128 62.7235 11.1289 64.3663 11.2457 65.9971C11.3586 67.5937 11.4915 69.1883 11.6064 70.7849C11.6648 71.5842 11.7112 72.3835 11.7414 73.1828C11.7575 73.6307 11.8603 73.946 12.3418 74.1488C13.7905 74.7614 15.2191 75.4261 16.6476 76.0888C17.4536 76.4624 17.8727 77.1292 17.8807 78.0008C17.9009 80.0733 17.9009 82.1459 17.8828 84.2185C17.8727 85.2688 17.1534 85.9818 16.0976 85.9918C14.0504 86.0099 12.0053 86.0119 9.95822 85.9878C8.53773 85.9718 7.41544 85.315 6.42412 84.331C5.02378 82.9412 3.54888 81.6278 2.16466 80.224C1.56019 79.6114 1.05849 78.8844 0.58499 78.1614C-0.130293 77.0689 -0.0517126 75.8037 0.107463 74.6067C0.359323 72.6908 0.764315 70.7929 1.12095 68.891C1.60654 66.3023 2.10824 63.7156 2.6039 61.1289C3.15598 58.249 3.71007 55.3671 4.25812 52.4871C4.46364 51.4067 4.71751 50.3322 4.83438 49.2437C4.95728 48.1171 5.5819 47.3378 6.44628 46.7715C7.33283 46.1891 8.28386 45.6669 9.27115 45.2773C13.4923 43.6124 17.7377 42.0078 21.977 40.383C22.1462 40.3128 22.3236 40.2726 22.5351 40.2103Z" fill="#ffffff"/>
<path d="M45.5491 85.9698C36.9274 85.9698 28.3461 85.9698 19.7163 85.9698C19.7163 85.6906 19.7163 85.4315 19.7163 85.1704C19.7183 82.5295 19.7204 79.8886 19.7224 77.2477C19.7244 76.0748 19.2247 75.2574 18.1064 74.7915C16.8713 74.2774 15.6684 73.6849 14.4414 73.1467C14.1089 73.0001 13.9558 72.8153 13.9397 72.4377C13.847 70.4555 13.7362 68.4733 13.6132 66.4931C13.5065 64.764 13.3815 63.0348 13.2586 61.3057C13.2103 60.6168 13.3513 60.4561 14.0787 60.4561C20.6371 60.4541 27.1936 60.4561 33.752 60.4541C39.5387 60.4521 45.3235 60.4461 51.1102 60.4441C51.9544 60.4441 52.0592 60.5465 52.0088 61.3599C51.8658 63.7237 51.7127 66.0875 51.5736 68.4512C51.495 69.7827 51.4185 71.1143 51.3681 72.4478C51.356 72.7832 51.2271 72.9619 50.9309 73.0925C49.6595 73.6548 48.4082 74.2593 47.1268 74.7995C46.0891 75.2373 45.5753 76.0166 45.5673 77.091C45.5491 79.9649 45.5773 82.8388 45.5854 85.7127C45.5854 85.783 45.5673 85.8493 45.5491 85.9698Z" fill="#ffffff"/>
<path d="M37.5682 14.3854C38.8053 10.8789 39.716 7.28601 40.3588 3.47624C40.935 3.93012 41.4508 4.28559 41.9102 4.70332C44.0984 6.69556 45.676 9.08345 46.4699 11.9453C46.6774 12.6964 46.7822 13.4796 46.895 14.2549C46.9595 14.6987 47.0441 15.0923 47.425 15.3916C48.0717 15.9017 48.11 16.6749 48.1725 17.3979C48.245 18.2454 48.247 19.0989 48.241 19.9504C48.237 20.6333 48.1584 20.6875 47.4874 20.6875C46.4477 20.6875 45.406 20.6654 44.3684 20.6975C44.1447 20.7056 43.8445 20.8502 43.7256 21.0289C43.4093 21.5029 43.0083 21.6615 42.4542 21.6595C35.8615 21.6475 29.2689 21.6475 22.6762 21.6535C22.1886 21.6535 21.8178 21.4948 21.6042 21.063C21.4551 20.7618 21.2375 20.6774 20.9172 20.6815C19.8271 20.6955 18.735 20.6674 17.647 20.6935C17.2299 20.7036 17.0345 20.5369 17.0546 20.1533C17.1171 18.888 17.1695 17.6228 17.2964 16.3636C17.3287 16.0523 17.5704 15.7008 17.8183 15.486C18.2132 15.1425 18.3301 14.7248 18.3824 14.2528C18.7633 10.8226 20.212 7.89654 22.6238 5.44238C23.2988 4.75553 24.0564 4.15103 24.8603 3.53649C25.5675 7.26793 26.4742 10.897 27.7315 14.4296C27.7758 14.4215 27.8202 14.4135 27.8645 14.4035C27.7778 13.7387 27.6952 13.074 27.6025 12.4112C27.2479 9.88477 26.8611 7.36232 26.5467 4.83185C26.4339 3.93012 26.4722 3.00629 26.4863 2.09452C26.4923 1.62457 26.7764 1.29521 27.2157 1.10241C28.6543 0.469792 30.1594 0.0922294 31.729 0.0199301C33.6694 -0.070444 35.5694 0.138421 37.411 0.813214C38.5897 1.245 38.9665 1.80934 38.8899 3.07257C38.6784 6.56101 38.0517 9.99121 37.5258 13.4375C37.4795 13.7447 37.4735 14.0601 37.4473 14.3693C37.4855 14.3754 37.5258 14.3814 37.5682 14.3854Z" fill="#ffffff"/>
<path d="M18.9547 22.3404C19.7203 22.3183 20.4296 22.1456 21.0401 22.8063C21.2839 23.0694 21.7957 23.1899 22.1866 23.1919C29.0271 23.214 35.8676 23.2019 42.7081 23.216C43.4557 23.218 44.0641 23.0232 44.6243 22.5171C45.1119 22.0793 45.7345 22.3645 46.3873 22.3102C46.208 23.3445 46.0629 24.3125 45.8655 25.2685C45.7204 25.9694 45.4947 26.6542 45.3255 27.3531C45.2126 27.819 44.9769 28.1484 44.5457 28.3894C44.3301 28.5099 44.1367 28.775 44.0581 29.014C43.1595 31.7553 41.747 34.1934 39.7523 36.2821C39.1539 36.9067 38.491 37.477 37.82 38.0233C36.7501 38.8949 35.5533 39.5175 34.1267 39.5034C32.807 39.4914 31.4812 39.4994 30.1675 39.3789C28.9525 39.2684 28.0136 38.4992 27.1109 37.7562C24.2437 35.3944 22.3054 32.412 21.1811 28.8834C21.1126 28.6645 20.8809 28.4496 20.6693 28.3352C20.2805 28.1283 20.0548 27.8391 19.9662 27.4234C19.6196 25.8107 19.273 24.2001 18.9305 22.5874C18.9224 22.5291 18.9446 22.4609 18.9547 22.3404Z" fill="#ffffff"/>
<path d="M82.5423 31.9099C82.5423 28.8171 82.5423 25.7263 82.5423 22.6335C82.5423 22.015 82.6935 21.8563 83.31 21.8563C88.9295 21.8563 94.547 21.8563 100.167 21.8603C100.846 21.8603 100.999 22.019 100.999 22.6797C100.999 28.8151 101.001 34.9485 101.001 41.0839C101.001 41.8752 100.916 41.9615 100.15 41.9615C94.5309 41.9636 88.9134 41.9636 83.2939 41.9656C82.6733 41.9656 82.5363 41.831 82.5363 41.1884C82.5343 38.0955 82.5363 35.0048 82.5363 31.9119C82.5383 31.9099 82.5403 31.9099 82.5423 31.9099ZM91.7503 27.8973C91.7503 27.8993 91.7503 27.9013 91.7503 27.9034C93.8458 27.9034 95.9413 27.8933 98.0368 27.9114C98.474 27.9154 98.6372 27.7648 98.6271 27.331C98.605 26.4955 98.609 25.6601 98.6211 24.8246C98.6271 24.4149 98.4478 24.2623 98.0469 24.2623C93.8559 24.2703 89.6649 24.2743 85.474 24.2683C85.0549 24.2683 84.9078 24.443 84.9118 24.8387C84.9219 25.6581 84.9239 26.4754 84.9018 27.2948C84.8897 27.7407 85.0448 27.9114 85.5143 27.9054C87.5937 27.8853 89.671 27.8973 91.7503 27.8973ZM88.5427 36.6074C88.5427 35.788 88.5326 34.9706 88.5467 34.1512C88.5527 33.8178 88.454 33.6612 88.0913 33.6692C87.1866 33.6873 86.282 33.6873 85.3753 33.6793C85.0549 33.6773 84.9139 33.8098 84.9139 34.1231C84.9159 35.794 84.9139 37.4629 84.9159 39.1338C84.9159 39.417 85.0408 39.5596 85.343 39.5556C86.2638 39.5496 87.1866 39.5516 88.1095 39.5636C88.4379 39.5676 88.5487 39.4271 88.5447 39.1118C88.5346 38.2783 88.5427 37.4428 88.5427 36.6074ZM96.7956 29.8755C96.7956 29.8775 96.7956 29.8795 96.7956 29.8795C96.3261 29.8795 95.8567 29.8916 95.3892 29.8755C95.091 29.8655 94.958 29.9739 94.9661 30.2792C94.9782 30.713 94.9802 31.1488 94.9641 31.5806C94.952 31.918 95.1092 32.0144 95.4215 32.0063C95.9574 31.9903 96.4934 31.9963 97.0293 31.9963C98.6936 31.9943 98.6936 31.9963 98.6231 30.3414C98.6231 30.3254 98.6211 30.3073 98.6231 30.2912C98.6413 29.996 98.5063 29.8655 98.206 29.8715C97.7346 29.8836 97.2651 29.8755 96.7956 29.8755ZM96.7956 39.5536C96.7956 39.5556 96.7956 39.5596 96.7956 39.5616C97.249 39.5616 97.7003 39.5536 98.1537 39.5636C98.4599 39.5697 98.6271 39.4652 98.6191 39.1318C98.607 38.698 98.605 38.2622 98.6211 37.8284C98.6332 37.5091 98.4801 37.4308 98.1939 37.4328C97.255 37.4408 96.3161 37.4408 95.3771 37.4268C95.0668 37.4228 94.9601 37.5433 94.9701 37.8405C94.9842 38.2743 94.9842 38.7101 94.9701 39.1439C94.9601 39.4451 95.087 39.5656 95.3872 39.5576C95.8567 39.5455 96.3261 39.5536 96.7956 39.5536ZM86.7333 32.0043C86.7333 32.0023 86.7333 32.0003 86.7333 31.9983C87.2007 31.9983 87.6702 31.9883 88.1377 32.0023C88.4359 32.0124 88.5628 31.9019 88.5527 31.5966C88.5366 31.1649 88.5406 30.7291 88.5507 30.2973C88.5588 30.0121 88.4721 29.8695 88.1538 29.8735C87.2169 29.8876 86.282 29.8876 85.345 29.8795C85.0509 29.8775 84.9058 29.986 84.9098 30.2832C84.9139 30.717 84.9159 31.1488 84.9078 31.5826C84.9018 31.9119 85.071 32.0164 85.3793 32.0083C85.8306 31.9943 86.282 32.0043 86.7333 32.0043ZM91.7463 32.0043C91.7463 32.0023 91.7463 32.0003 91.7463 31.9963C92.2138 31.9963 92.6832 31.9883 93.1507 32.0003C93.4429 32.0083 93.5819 31.9059 93.5698 31.5966C93.5537 31.1649 93.5496 30.7291 93.5698 30.2973C93.5859 29.9599 93.4368 29.8635 93.1225 29.8735C92.6047 29.8896 92.0848 29.8775 91.567 29.8775C89.8926 29.8775 89.8926 29.8775 89.9712 31.5565C89.9712 31.5725 89.9732 31.5906 89.9712 31.6067C89.9511 31.9079 90.0941 32.0204 90.3923 32.0104C90.8416 31.9923 91.295 32.0043 91.7463 32.0043ZM96.7614 35.8101C96.7614 35.8081 96.7614 35.8061 96.7614 35.8041C97.2308 35.8041 97.7003 35.796 98.1678 35.8061C98.478 35.8121 98.6352 35.7036 98.6231 35.3703C98.607 34.9365 98.609 34.5027 98.6191 34.0689C98.6251 33.7957 98.5183 33.6712 98.2383 33.6752C97.2832 33.6833 96.3282 33.6873 95.3731 33.6833C95.1051 33.6833 94.9681 33.7817 94.9722 34.0629C94.9782 34.5127 94.9742 34.9646 94.9661 35.4144C94.9601 35.7237 95.1172 35.8201 95.4053 35.8121C95.8567 35.8021 96.31 35.8101 96.7614 35.8101ZM89.9833 37.4388C89.9833 38.0895 89.9652 38.6699 89.9994 39.2463C90.0055 39.3548 90.219 39.5355 90.3419 39.5395C91.295 39.5656 92.248 39.5717 93.2011 39.5435C93.324 39.5395 93.5335 39.3286 93.5436 39.2001C93.5839 38.7201 93.5779 38.2341 93.5476 37.7521C93.5416 37.6417 93.3723 37.4529 93.2776 37.4509C92.2077 37.4308 91.1398 37.4388 89.9833 37.4388ZM91.7463 35.8101C91.7463 35.8081 91.7463 35.8061 91.7463 35.8041C92.2158 35.8041 92.6832 35.796 93.1527 35.8061C93.4529 35.8121 93.5758 35.6876 93.5658 35.3883C93.5517 34.9545 93.5537 34.5207 93.5617 34.087C93.5678 33.8259 93.4872 33.6712 93.197 33.6732C92.242 33.6793 91.2869 33.6672 90.3339 33.6993C90.213 33.7034 90.0095 33.9203 89.9954 34.0528C89.9511 34.5167 89.947 34.9887 89.9893 35.4506C90.0014 35.5791 90.209 35.78 90.3399 35.792C90.8074 35.8342 91.2789 35.8101 91.7463 35.8101Z" fill="#ffffff"/>
<path d="M79.4938 17.3698C78.6798 18.7877 77.8336 20.0971 77.1546 21.4889C76.5763 22.6758 75.7179 23.4168 74.5151 23.8968C73.4915 24.3045 72.5102 24.8267 71.529 25.3348C71.3517 25.4272 71.1603 25.6902 71.1522 25.881C71.1099 26.831 71.1381 27.7849 71.12 28.7369C71.1139 29.0883 71.255 29.2068 71.5955 29.2008C72.5002 29.1847 73.4069 29.1887 74.3115 29.1887C74.9624 29.1887 74.9624 29.1907 74.9603 29.8615C74.9583 30.7472 74.9684 31.6328 74.9503 32.5185C74.9422 32.886 75.0752 33.0146 75.4479 33.0105C77.2754 32.9985 79.1029 33.0186 80.9304 33.0025C81.3415 32.9985 81.4966 33.113 81.4785 33.5367C81.4483 34.1874 81.4604 34.8401 81.4845 35.4908C81.4966 35.8503 81.3939 35.9949 81.005 35.9909C78.6738 35.9728 76.3446 35.9849 74.0133 35.9648C73.8078 35.9628 73.5519 35.8583 73.4089 35.7137C71.7607 34.0509 70.1206 32.3799 68.5026 30.6889C68.3092 30.4881 68.1803 30.1487 68.1682 29.8675C68.1259 28.9397 68.1521 28.0078 68.1521 26.9756C67.5516 27.2487 67.0499 27.4656 66.5623 27.7066C66.3084 27.8311 66.1634 27.7729 66.0445 27.5279C65.0572 25.5015 64.0699 23.4751 63.0725 21.4527C62.9396 21.1816 63.0927 21.1033 63.2901 21.0069C65.3111 20.0308 67.328 19.0508 69.3469 18.0727C70.3402 17.5927 71.3517 17.1429 72.3269 16.6267C72.7762 16.3897 73.2114 16.3717 73.6809 16.44C75.4338 16.693 77.1888 16.946 78.9418 17.2031C79.1009 17.2352 79.2561 17.2995 79.4938 17.3698ZM75.1739 21.5993C75.2344 21.6094 75.2928 21.6194 75.3532 21.6294C75.7401 20.9767 76.131 20.328 76.5058 19.6693C76.542 19.6051 76.4957 19.4765 76.4594 19.3902C75.9879 18.2294 75.9859 18.2294 74.7306 18.0566C74.5977 18.0386 74.4647 18.0245 74.3317 18.0125C74.0476 17.9843 73.7615 17.9582 73.3807 17.9241C74.0133 19.2215 74.5936 20.4104 75.1739 21.5993Z" fill="#ffffff"/>
<path d="M68.142 16.7613C68.142 16.5524 68.142 16.3878 68.142 16.2231C68.146 13.4998 68.1581 10.7745 68.142 8.05125C68.14 7.59536 68.2669 7.4588 68.7324 7.4588C76.1108 7.47085 83.4894 7.46884 90.8678 7.45679C91.2728 7.45679 91.3796 7.58733 91.3776 7.97292C91.3696 12.0839 91.3716 16.195 91.3837 20.306C91.3837 20.6574 91.3071 20.8201 90.9102 20.806C90.0921 20.7779 89.2721 20.798 88.4117 20.798C88.3996 20.5651 88.3835 20.3843 88.3835 20.2056C88.3815 17.181 88.3694 14.1565 88.3936 11.132C88.3976 10.6179 88.2425 10.4893 87.7387 10.4893C82.4235 10.5054 77.1062 10.4994 71.7909 10.4994C71.1341 10.4994 71.1341 10.5014 71.1321 11.1682C71.1301 12.4374 71.1361 13.7087 71.116 14.9779C71.1119 15.1667 71.0354 15.4559 70.9004 15.5262C70.0722 15.964 69.2179 16.3536 68.3717 16.7553C68.3314 16.7774 68.277 16.7613 68.142 16.7613Z" fill="#ffffff"/>
<path d="M65.1076 28.4235C64.356 28.791 63.6609 29.1204 62.9759 29.4698C62.593 29.6646 62.3976 29.4779 62.1377 29.2087C60.8038 27.823 59.9374 26.1983 59.5103 24.3326C59.2121 23.0392 59.21 23.0392 60.3928 22.4287C60.7655 22.2359 61.1322 22.029 61.5231 21.8844C61.646 21.8402 61.9301 21.9346 61.9845 22.0431C63.0323 24.1498 64.0578 26.2666 65.1076 28.4235Z" fill="#ffffff"/>
</svg>
