<svg width="91" height="97" viewBox="0 0 91 97" fill="none" xmlns="http://www.w3.org/2000/svg">
<path d="M83.0689 29.8083C84.4747 30.5158 85.6251 31.4085 86.7641 32.3283C87.4286 32.8662 88.1111 33.3951 88.8366 33.8448C90.8571 35.0969 91.5487 37.3705 90.543 39.5176C89.5531 41.633 88.3801 43.6354 87.0534 45.5565C86.8026 45.9204 86.7076 46.4628 86.7076 46.9216C86.728 53.6182 86.8523 60.3147 86.789 67.009C86.7528 70.7653 86.4703 74.5238 86.2059 78.2732C85.9347 82.1176 85.5573 85.9552 85.216 89.7928C85.1301 90.7669 84.9787 91.7342 84.9064 92.7083C84.7594 94.6813 83.5029 95.6916 82.0225 96.1051C80.3455 96.573 78.2233 95.7729 77.5069 94.27C77.2199 93.6643 77.0775 92.9388 77.0617 92.263C76.978 88.5769 76.9667 84.8907 76.908 81.2045C76.8311 76.3522 76.7272 71.4998 76.6436 66.6497C76.6255 65.601 76.6413 64.5501 76.517 63.4517C76.4243 63.6325 76.3023 63.8065 76.2458 63.9986C75.9407 65.0428 75.6197 66.0847 75.3689 67.1447C75.2581 67.6147 75.0366 67.7323 74.5914 67.7323C70.8103 67.721 67.0292 67.73 63.2481 67.7345C63.047 67.7345 62.8458 67.7594 62.5566 67.7775C62.7035 68.5165 62.8255 69.1945 62.9747 69.8635C63.551 72.4648 64.1386 75.0662 64.7194 77.6653C65.1217 79.4598 65.4901 81.2633 65.9308 83.0487C66.4981 85.3404 65.3184 87.5418 63.0719 88.2808C61.2299 88.8865 59.6004 88.5656 58.5879 87.3067C58.2331 86.866 57.9483 86.3191 57.7901 85.7766C56.8341 82.4792 55.93 79.1659 54.9944 75.8617C54.061 72.5575 53.105 69.2578 52.1738 65.9513C51.9455 65.14 51.6856 64.3241 51.5952 63.4924C51.254 60.2989 53.4236 57.8852 56.6329 57.84C58.0816 57.8196 59.5303 57.8083 60.9768 57.8513C62.3215 57.8897 63.6278 57.7247 64.9274 57.3789C66.2992 57.0128 67.6892 56.7144 69.0701 56.3867C69.0701 56.3393 69.0701 56.2941 69.0678 56.2466C68.8079 56.2466 68.5457 56.2172 68.2903 56.2511C66.4461 56.493 64.6064 56.7732 62.76 56.9902C61.3791 57.1529 59.9914 57.3021 58.6037 57.3495C56.7866 57.4128 55.3402 56.007 55.2113 54.1877C55.1074 52.7503 55.3921 51.4553 56.5154 50.4518C57.2341 49.8099 58.1087 49.5726 59.0444 49.4732C61.4175 49.2246 63.7906 48.9715 66.1591 48.6912C67.427 48.542 68.6904 48.3364 69.9538 48.1511C73.3845 47.6448 76.2119 46.0356 78.5443 43.4931C79.9975 41.9087 81.2563 40.1934 82.2033 38.1819C81.8168 38.3876 81.4326 38.5955 80.8812 38.8893C81.3671 35.7342 82.0519 32.7849 83.0689 29.8083Z" fill="#ffffff"/>
<path d="M47.5542 82.8475C47.5542 87.0625 47.5542 91.2753 47.5542 95.4903C47.5542 96.2203 47.552 96.2136 46.8491 96.2113C44.7427 96.2068 42.6341 96.191 40.5277 96.2181C39.9785 96.2249 39.8271 96.0463 39.8271 95.5107C39.8451 87.214 39.8429 78.9195 39.8451 70.6228C39.8451 69.4159 39.974 69.5064 38.7174 69.5018C38.2473 69.4996 37.7772 69.4928 37.3071 69.5109C36.9274 69.5244 36.7579 69.3821 36.7602 68.9888C36.7715 66.8259 36.7805 64.663 36.7669 62.4979C36.7647 61.9713 37.0698 61.9283 37.4608 61.9283C39.8316 61.9306 42.2001 61.9283 44.5709 61.9306C46.3383 61.9329 48.108 61.9532 49.8753 61.9351C50.3658 61.9306 50.5579 62.0752 50.4968 62.586C50.3228 64.0551 50.924 65.3908 51.2675 66.7694C51.4303 67.4248 51.654 68.0644 51.8212 68.7198C52.0201 69.5041 52.0066 69.5086 51.2133 69.5109C50.2912 69.5109 49.3691 69.5041 48.447 69.5041C47.5452 69.5041 47.5475 69.5041 47.5475 70.433C47.5475 74.5712 47.5475 78.7093 47.5475 82.8498C47.5497 82.8475 47.552 82.8475 47.5542 82.8475Z" fill="#ffffff"/>
<path d="M42.2453 23.0032C42.1662 23.6315 42.0668 24.0745 42.06 24.5197C42.0397 25.93 42.0487 27.3403 42.0532 28.7528C42.0555 29.9303 42.4872 30.8976 43.6624 31.2683C45.5586 31.8672 47.3034 30.8728 47.326 28.8636C47.335 28.007 47.3282 27.1505 47.3282 26.1425C48.3227 26.7888 49.186 27.3403 50.0381 27.9076C51.6201 28.9608 53.2496 29.919 55.0351 30.5948C57.1437 31.3949 59.3111 31.3587 61.4876 31.0604C64.1522 30.6942 66.6405 29.7405 69.0746 28.6308C69.3684 28.4975 69.7029 28.4523 70.164 28.3257C69.9605 29.0399 69.8069 29.6049 69.6396 30.1676C68.2655 34.785 67.5468 39.5108 67.3027 44.3134C67.2665 45.0457 67.2259 45.7779 67.2213 46.5124C67.2191 46.8989 67.097 47.1114 66.6902 47.1498C65.8111 47.2334 64.9319 47.3283 64.055 47.4323C63.6527 47.4798 63.4719 47.3961 63.5261 46.9238C63.8177 44.3473 64.0753 41.7663 64.3556 39.1876C64.4189 38.5954 64.3488 38.496 63.7002 38.6271C61.8831 38.9932 60.0501 39.1062 58.2014 39.07C54.7593 39.0045 51.6133 37.9174 48.5961 36.3354C45.4366 34.6765 42.6047 32.5317 39.7276 30.4547C38.4643 29.5439 38.01 28.2014 38.2156 26.6691C38.4371 25.0283 39.2236 23.7558 40.8351 23.1637C41.2645 23.0032 41.7685 23.0507 42.2453 23.0032Z" fill="#ffffff"/>
<path d="M68.4169 45.5927C68.8192 42.4489 69.1085 39.2825 69.6622 36.1659C70.1029 33.6821 70.8736 31.2571 71.4838 28.8004C71.5878 28.38 71.8047 28.1269 72.2432 28.1043C73.4049 28.0432 74.5665 27.9754 75.7282 27.9574C75.9 27.9551 76.1508 28.1743 76.2345 28.3506C76.4243 28.7552 76.5509 29.1936 76.6729 29.6253C76.7859 30.0344 76.9758 30.1428 77.3668 29.9281C78.0403 29.5575 78.7318 29.2207 79.4144 28.8636C79.9862 28.5653 81.2428 28.7077 81.679 29.1552C81.7513 29.2298 81.7536 29.4241 81.7219 29.5439C81.1998 31.4605 80.6167 33.3612 80.1557 35.2913C79.8167 36.7129 79.6359 38.1706 79.376 39.6103C79.3262 39.8815 79.3036 40.1979 79.15 40.4058C77.6696 42.4195 75.9813 44.2276 73.7371 45.4096C72.2613 46.187 70.6521 46.5622 69.0068 46.7995C68.6632 46.8493 68.5661 46.7069 68.5774 46.4018C68.5864 46.1396 68.5796 45.8752 68.5796 45.613C68.5209 45.6062 68.4689 45.5994 68.4169 45.5927Z" fill="#ffffff"/>
<path d="M29.998 42.8918C27.2724 42.8918 24.5468 42.8782 21.8211 42.9031C21.2923 42.9076 21.1499 42.7358 21.1544 42.2296C21.177 40.1051 21.1747 37.9807 21.1544 35.8585C21.1499 35.3816 21.3216 35.2528 21.7782 35.255C27.2475 35.2663 32.7169 35.2686 38.1863 35.2528C38.7422 35.2505 38.8914 35.4494 38.8869 35.976C38.8643 38.062 38.862 40.1481 38.8914 42.2341C38.8982 42.7562 38.7513 42.9167 38.2269 42.9121C35.4832 42.8895 32.7395 42.9008 29.9935 42.9008C29.998 42.8963 29.998 42.894 29.998 42.8918Z" fill="#ffffff"/>
<path d="M19.708 52.8068C16.962 52.8068 14.2138 52.7977 11.4678 52.8158C10.9954 52.8181 10.8372 52.6599 10.8417 52.1988C10.8598 50.0924 10.8711 47.9838 10.8485 45.8774C10.8417 45.3395 11.0067 45.161 11.5491 45.1632C15.4252 45.1813 19.2989 45.1723 23.1749 45.1723C24.775 45.1723 26.3729 45.1881 27.9708 45.1655C28.4454 45.1587 28.5742 45.3282 28.572 45.787C28.5539 47.9137 28.5561 50.0382 28.5787 52.1649C28.5833 52.6441 28.459 52.8226 27.9459 52.8181C25.1999 52.7955 22.454 52.8068 19.708 52.8068Z" fill="#ffffff"/>
<path d="M8.90032 81.2927C6.17468 81.2927 3.44904 81.2927 0.723402 81.2927C0.013741 81.2927 0.000180639 81.2723 0.00244071 80.5649C0.00696084 78.5151 0.0092209 76.4674 0.013741 74.4176C0.0160011 73.6943 0.045382 73.665 0.786684 73.665C6.19954 73.6604 11.6147 73.6627 17.0275 73.6446C17.5632 73.6424 17.7485 73.8006 17.7417 74.3475C17.7123 76.4516 17.7146 78.558 17.7304 80.6644C17.7349 81.1141 17.6174 81.2949 17.1337 81.2904C14.39 81.2723 11.644 81.2814 8.90032 81.2814C8.90032 81.2859 8.90032 81.2904 8.90032 81.2927Z" fill="#ffffff"/>
<path d="M40.3333 52.8023C37.6257 52.8023 34.9159 52.791 32.2084 52.8113C31.7089 52.8158 31.5123 52.696 31.519 52.1582C31.5416 50.0133 31.5349 47.8685 31.51 45.726C31.5055 45.2582 31.6863 45.161 32.1089 45.1632C37.6009 45.1768 43.0928 45.1813 48.5848 45.17C49.0639 45.17 49.195 45.3328 49.1928 45.7893C49.1815 47.9341 49.186 50.0766 49.2108 52.2214C49.2154 52.7051 49.0233 52.8226 48.5735 52.8204C45.8275 52.8045 43.0815 52.8136 40.3356 52.8136C40.3333 52.8068 40.3333 52.8045 40.3333 52.8023Z" fill="#ffffff"/>
<path d="M9.38849 42.8986C6.70127 42.8986 4.01406 42.8986 1.32684 42.8986C0.551633 42.8986 0.556153 42.8986 0.556153 42.0895C0.558413 40.0781 0.556153 38.0689 0.556153 36.0574C0.556153 35.2641 0.558413 35.2596 1.32232 35.2596C6.73518 35.2596 12.1458 35.2664 17.5586 35.2483C18.083 35.2461 18.2344 35.4065 18.2299 35.9173C18.2073 38.0214 18.2073 40.1278 18.2276 42.2319C18.2321 42.7337 18.0965 42.9077 17.5632 42.9032C14.8375 42.876 12.1141 42.8896 9.38849 42.8896C9.38849 42.8941 9.38849 42.8964 9.38849 42.8986Z" fill="#ffffff"/>
<path d="M29.4601 81.2836C26.7322 81.2836 24.0043 81.2746 21.2787 81.2927C20.8086 81.2949 20.6662 81.1503 20.6707 80.6847C20.6933 78.5603 20.6956 76.4335 20.6798 74.3091C20.6752 73.8322 20.8086 73.6446 21.3171 73.6469C26.7729 73.665 32.2264 73.6695 37.6822 73.6559C38.2224 73.6537 38.3535 73.8525 38.349 74.3498C38.3331 76.4561 38.3331 78.5625 38.3603 80.6689C38.3671 81.1797 38.1817 81.304 37.7026 81.2995C34.9566 81.2814 32.2106 81.2904 29.4646 81.2904C29.4601 81.2882 29.4601 81.2859 29.4601 81.2836Z" fill="#ffffff"/>
<path d="M19.7305 72.0376C16.9665 72.0376 14.2024 72.0309 11.4384 72.0444C11.0022 72.0467 10.8349 71.9088 10.8394 71.4636C10.8575 69.321 10.8643 67.1762 10.853 65.0337C10.8507 64.55 11.07 64.419 11.5039 64.419C13.2713 64.4235 15.0386 64.4122 16.806 64.4099C20.3227 64.4077 23.8371 64.3964 27.3538 64.4144C28.7753 64.4212 28.5538 64.3376 28.5629 65.6326C28.5764 67.5695 28.5584 69.5064 28.5832 71.4432C28.59 71.9179 28.4273 72.0512 27.9662 72.0489C25.2202 72.0309 22.4765 72.0399 19.7305 72.0399C19.7305 72.0399 19.7305 72.0399 19.7305 72.0376Z" fill="#ffffff"/>
<path d="M8.88224 62.7014C6.19502 62.7014 3.50554 62.7036 0.818321 62.7014C0.0205172 62.7014 -0.00208347 62.6765 0.000176594 61.8719C0.00243666 59.8424 0.0250373 57.8106 0.000176594 55.781C-0.00660361 55.2296 0.180982 55.0827 0.714358 55.0827C6.14756 55.0962 11.5785 55.094 17.0117 55.0714C17.5767 55.0691 17.7553 55.2228 17.744 55.8014C17.7078 57.8693 17.7101 59.9373 17.7327 62.0053C17.7372 62.5183 17.5812 62.6991 17.0592 62.6968C14.3335 62.6788 11.6079 62.6878 8.88224 62.6878C8.88224 62.6901 8.88224 62.6946 8.88224 62.7014Z" fill="#ffffff"/>
<path d="M29.4963 55.0917C32.2423 55.0917 34.986 55.1007 37.732 55.0826C38.2021 55.0804 38.3512 55.2363 38.3444 55.6996C38.3218 57.2026 38.3241 58.7078 38.3422 60.213C38.3467 60.6537 38.193 60.8255 37.7546 60.8074C37.3229 60.787 36.889 60.8322 36.4573 60.8141C36.0143 60.7961 35.8177 60.943 35.8086 61.4221C35.7838 62.699 35.7634 62.699 34.4481 62.699C30.1223 62.6945 25.7988 62.6923 21.473 62.6877C20.6775 62.6877 20.6752 62.6855 20.6752 61.8696C20.6775 59.8197 20.6956 57.7698 20.673 55.72C20.6685 55.225 20.8176 55.0713 21.3126 55.0758C24.0382 55.0962 26.7661 55.0849 29.4918 55.0849C29.4963 55.0849 29.4963 55.0894 29.4963 55.0917Z" fill="#ffffff"/>
<path d="M38.2699 12.0374C38.2699 13.2036 38.2563 14.3698 38.2767 15.536C38.2857 15.9722 38.1388 16.1417 37.6936 16.1372C36.2652 16.1191 34.8346 16.1462 33.4062 16.1281C32.1722 16.1123 31.7767 15.4659 32.3169 14.3585C34.5023 9.87 36.6969 5.38603 38.8891 0.899797C38.9479 0.782274 38.9976 0.66023 39.0677 0.547227C39.5129 -0.182775 40.1118 -0.187295 40.5277 0.563047C40.9255 1.28627 41.2803 2.03435 41.6419 2.77565C43.5155 6.60195 45.3891 10.4282 47.2604 14.2545C47.3508 14.4399 47.4412 14.6297 47.5 14.8263C47.6831 15.4411 47.3553 16.0309 46.718 16.0535C45.0659 16.11 43.4115 16.101 41.7572 16.1033C41.3368 16.1033 41.3729 15.7688 41.3729 15.4863C41.3707 13.7189 41.3729 11.9515 41.3707 10.1819C41.3707 9.67338 41.3729 9.16486 41.3458 8.65861C41.2938 7.67322 40.6429 7.0291 39.748 7.04944C38.8869 7.06978 38.2812 7.73876 38.2721 8.70381C38.2608 9.8135 38.2699 10.9232 38.2699 12.0329C38.2654 12.0374 38.2676 12.0374 38.2699 12.0374Z" fill="#ffffff"/>
<path d="M88.7598 21.8958C87.1529 21.2472 85.5912 20.6121 84.0295 19.9838C80.0088 18.3678 75.9859 16.7519 71.963 15.1427C71.6827 15.0297 71.3799 14.9393 71.5878 14.5619C71.7754 14.2206 71.7731 13.4658 72.4331 13.8455C73.31 14.3517 73.7756 14.033 74.3835 13.3663C76.0063 11.5809 78.0561 10.5006 80.4699 10.2587C82.5469 10.0508 84.4114 10.6881 86.0138 12.0261C88.753 14.3088 89.6842 18.5419 88.7598 21.8958Z" fill="#ffffff"/>
<path d="M81.3987 27.8037C76.6775 28.0229 73.2512 25.2227 72.5732 21.5117C72.3472 20.2709 72.4014 19.0821 72.7653 17.8956C72.9823 17.1904 73.0252 17.1814 73.7055 17.4594C75.3214 18.1193 76.9329 18.7838 78.5511 19.4369C81.3174 20.5557 84.0814 21.6766 86.8568 22.7728C87.3585 22.9717 87.3721 23.209 87.1461 23.6248C85.6974 26.2985 83.4396 27.6749 81.3987 27.8037Z" fill="#ffffff"/>
<path d="M44.0285 22.4879C42.9121 21.7986 41.9131 21.1726 40.9051 20.5624C38.7603 19.2651 38.9479 19.3804 38.9434 17.0954C38.9389 14.3133 38.9456 11.5311 38.9434 8.75126C38.9434 8.34671 39.0112 7.95346 39.4496 7.85176C39.7276 7.78847 40.148 7.78395 40.322 7.94894C40.5458 8.15913 40.6814 8.56142 40.6882 8.88235C40.7198 10.6113 40.6995 12.3402 40.6995 14.0692C40.6995 15.31 40.713 16.5508 40.7017 17.7915C40.6972 18.1916 40.8283 18.4492 41.1876 18.6549C42.2431 19.2651 43.2692 19.925 44.3246 20.5353C45.1201 20.994 45.8004 21.5116 45.8411 22.5377C45.8456 22.6597 45.9021 22.8134 45.988 22.8948C46.6163 23.4824 46.657 24.235 46.6434 25.0237C46.6231 26.2826 46.6344 27.5415 46.6367 28.8026C46.6389 29.58 46.3609 30.2242 45.6309 30.5451C44.91 30.8638 44.1257 30.8751 43.4929 30.3824C43.1607 30.1225 42.833 29.6298 42.8149 29.2297C42.7403 27.5053 42.738 25.7741 42.8104 24.0474C42.8284 23.6474 43.2285 23.2541 43.4861 22.8812C43.5856 22.7433 43.7754 22.6665 44.0285 22.4879Z" fill="#ffffff"/>
</svg>
