<svg width="103" height="77" viewBox="0 0 103 77" fill="none" xmlns="http://www.w3.org/2000/svg">
<path d="M26.744 38.4965C26.7463 17.289 43.9022 -0.0162094 64.9079 1.13939e-05C85.8952 0.0162322 102.996 17.3029 102.998 38.5035C103 59.711 85.8399 77.0255 64.8434 76.9977C43.8607 76.9745 26.7417 59.6716 26.744 38.4965ZM49.6677 12.7704C48.6649 13.4748 47.7036 14.0727 46.8299 14.7794C37.724 22.1622 33.8235 31.7232 35.3173 43.3674C36.1357 49.7445 38.9297 55.2989 43.448 59.8639C50.9033 67.395 59.9285 70.368 70.3438 68.5189C78.0872 67.1447 84.3092 63.071 88.9428 56.7055C93.8622 49.9484 95.6903 42.3687 94.3625 34.0729C93.4242 28.2033 90.8907 23.1007 86.9118 18.7118C86.4715 18.2252 85.9713 17.9216 85.3027 17.9888C84.5143 18.0676 83.9103 18.4523 83.6199 19.2031C83.2994 20.028 83.5715 20.7417 84.1386 21.379C87.2553 24.8711 89.2886 28.9216 90.2706 33.4982C90.5196 34.6568 90.6533 35.8386 90.8539 37.0923C90.1162 37.0923 89.5053 37.0807 88.8967 37.0946C87.7071 37.1201 86.9418 37.8662 86.9464 38.9832C86.9487 40.1024 87.721 40.8439 88.9082 40.8601C89.5191 40.8671 90.1277 40.8624 90.8124 40.8624C90.1968 47.7771 87.4328 53.5703 82.4373 58.2418C78.0411 62.3526 72.8104 64.6351 66.7452 65.1565C66.7452 64.4544 66.7567 63.8426 66.7429 63.2286C66.7152 62.0352 65.9614 61.252 64.8664 61.2589C63.7668 61.2659 63.0199 62.0584 63.0084 63.2448C63.0014 63.8565 63.0084 64.4683 63.0084 65.0824C50.9909 64.5679 39.6858 53.9596 39.0011 40.8624C39.6328 40.8624 40.269 40.9227 40.8892 40.8416C41.341 40.7837 41.832 40.6307 42.1963 40.3642C42.8026 39.924 42.9801 39.0364 42.7011 38.3135C42.4107 37.5604 41.8505 37.1317 41.039 37.1015C40.3566 37.0784 39.672 37.0969 38.9458 37.0969C39.2755 32.8401 40.5042 28.968 42.6481 25.3971C44.7874 21.8332 47.5998 18.9273 51.1961 16.7746C50.6797 18.1951 50.1656 19.6156 49.6308 21.0893C50.652 21.4462 51.6364 21.7891 52.6761 22.1529C53.8956 18.6539 55.0966 15.2128 56.3092 11.7323C52.8328 10.4948 49.4302 9.28524 45.9908 8.06173C45.6311 9.11377 45.29 10.1102 44.9349 11.1437C46.5048 11.679 48.0402 12.2073 49.6677 12.7704ZM60.8229 39.1083C60.9751 39.6297 61.0719 40.2067 61.3047 40.7234C62.1761 42.6537 64.2601 43.5644 66.185 42.8993C68.0477 42.2551 69.2049 40.2854 68.7646 38.4201C68.6655 37.996 68.76 37.762 69.0459 37.4746C72.6974 33.8087 76.3375 30.1312 79.9775 26.4538C80.8305 25.5918 80.8789 24.3242 80.1066 23.5595C79.3597 22.818 78.1172 22.8922 77.2757 23.7379C73.6841 27.3552 70.0994 30.977 66.5055 34.592C66.298 34.8005 65.9845 35.1527 65.8139 35.1041C65.2491 34.9465 64.6197 35.0786 64.1195 34.5549C61.8119 32.131 59.4628 29.7466 57.1207 27.3575C56.4637 26.6855 55.5992 26.5326 54.8015 26.9126C54.0892 27.2509 53.6512 28.0179 53.8356 28.8846C53.9325 29.3434 54.2045 29.8231 54.5318 30.1614C56.6181 32.3187 58.7344 34.446 60.8598 36.5616C61.2148 36.9138 61.3601 37.2035 61.1457 37.7017C60.9705 38.1188 60.9359 38.5939 60.8229 39.1083Z" fill="#ffffff"/>
<path d="M11.9948 40.2623C8.5991 40.2623 5.20342 40.2646 1.80774 40.26C0.952479 40.2577 0.22401 39.6761 0.0418932 38.8836C-0.140224 38.0911 0.281642 37.229 1.06774 36.8954C1.33977 36.7795 1.66251 36.7378 1.96219 36.7378C8.67748 36.7285 15.3928 36.7285 22.1057 36.7331C23.15 36.7331 23.7955 37.2128 23.9869 38.0772C24.1759 38.9276 23.7771 39.7641 22.961 40.1117C22.6913 40.2276 22.3662 40.2554 22.0666 40.2554C18.7101 40.2646 15.3513 40.2623 11.9948 40.2623Z" fill="#ffffff"/>
<path d="M13.4863 25.4574C11.5291 25.4574 9.57422 25.4667 7.61704 25.4527C6.79405 25.4481 6.07942 24.8503 5.90652 24.0809C5.73132 23.307 6.12783 22.4565 6.87474 22.1136C7.14215 21.9908 7.46489 21.9375 7.76458 21.9375C11.5798 21.9259 15.3974 21.9236 19.2126 21.9328C20.3353 21.9352 21.1237 22.7091 21.1029 23.738C21.0822 24.7321 20.2846 25.4528 19.1826 25.4551C17.2854 25.462 15.3858 25.4574 13.4863 25.4574Z" fill="#ffffff"/>
<path d="M13.4656 55.0718C11.5844 55.0718 9.70334 55.0764 7.82454 55.0695C6.69034 55.0672 5.88349 54.3349 5.87657 53.3176C5.86966 52.2865 6.64654 51.538 7.79457 51.5333C11.5937 51.5218 15.3951 51.5218 19.1942 51.5333C20.3722 51.538 21.1053 52.2401 21.103 53.3037C21.103 54.321 20.2915 55.0648 19.1665 55.0695C17.2647 55.0764 15.3651 55.0741 13.4656 55.0718Z" fill="#ffffff"/>
</svg>
