<svg width="84" height="78" viewBox="0 0 84 78" fill="none" xmlns="http://www.w3.org/2000/svg">
<path d="M65.5204 62.6275C65.5742 63.8425 65.6627 65.0574 65.6742 66.2724C65.6915 68.2399 65.3955 70.1513 64.5401 71.9505C63.6924 73.7323 62.3623 75.0304 60.6343 75.9242C58.7583 76.8954 56.7362 77.4158 54.6545 77.5667C51.7194 77.7795 48.7765 77.9246 45.8337 77.9652C41.0783 78.029 36.3229 77.9884 31.5656 77.9846C26.618 77.9787 21.6703 77.9846 16.7227 77.9478C14.2085 77.9284 11.6963 77.7969 9.22248 77.2997C7.40797 76.936 5.65881 76.3904 4.10187 75.3399C2.07592 73.976 0.893792 72.0337 0.405566 69.6754C-0.459403 65.4888 0.0960988 61.4319 1.7184 57.5182C3.4887 53.2427 6.37385 49.89 10.2662 47.4311C13.0591 45.6667 16.1115 44.622 19.3964 44.2777C19.4752 44.2699 19.5541 44.2757 19.6329 44.2777C19.7693 44.7845 19.8501 45.3146 20.0519 45.7925C20.7073 47.3479 21.9433 48.3617 23.3522 49.1761C25.5127 50.424 27.8731 51.0198 30.3296 51.2868C33.5723 51.6408 36.7592 51.37 39.8539 50.3117C41.8626 49.625 43.7059 48.6441 45.0418 46.9029C45.6319 46.1349 45.9414 45.2488 46.0586 44.1713C47.2158 44.4034 48.3248 44.6124 49.4262 44.8619C49.5512 44.8909 49.68 45.127 49.7184 45.2875C50.3066 47.7348 51.5944 49.712 53.6415 51.163C55.1081 52.2019 56.7304 52.8442 58.543 52.9312C58.618 52.9351 58.691 52.9525 58.8678 52.9777C58.2662 53.589 57.7242 54.1442 57.1783 54.6937C55.9423 55.9338 54.7141 57.1796 53.4589 58.4004C53.2571 58.5958 52.9342 58.6616 52.6708 58.7951C52.4209 58.9208 52.1345 59.0079 51.9385 59.1936C51.2273 59.8668 50.5392 60.5652 49.8587 61.2694C48.5536 62.6198 48.5959 64.6976 49.9606 66.0886C51.2542 67.406 52.5555 68.7158 53.8626 70.0197C55.2407 71.3933 57.3013 71.3972 58.6891 70.0313C59.3868 69.3445 60.0807 68.6519 60.7535 67.94C60.9169 67.7678 60.9841 67.5047 61.0937 67.2822C61.2302 67.0056 61.3051 66.6709 61.507 66.46C62.7006 65.2238 63.9231 64.0185 65.136 62.8017C65.2033 62.7339 65.2782 62.6759 65.3493 62.6121C65.4051 62.6179 65.4627 62.6217 65.5204 62.6275Z" fill="#973B29"/>
<path d="M16.3652 17.8933C16.6343 11.2285 19.654 6.35911 25.4263 3.06639C25.6492 4.33743 25.8491 5.48853 26.051 6.63963C26.2893 8.00353 26.5238 9.36744 26.7718 10.7294C26.9313 11.6019 27.5041 12.0353 28.2845 11.9057C28.9899 11.7877 29.3859 11.1337 29.2379 10.2825C28.7631 7.5547 28.2864 4.82689 27.7924 2.10101C27.7175 1.68313 27.7828 1.36199 28.0865 1.05632C28.7401 0.398545 29.5051 0.0116208 30.4354 0.00581695C32.0538 -0.00385615 33.6704 -0.00192153 35.2888 0.00581695C36.2384 0.0116208 37.013 0.408218 37.6646 1.09694C37.9203 1.36779 38.0029 1.63864 37.9356 2.01202C37.5358 4.21361 37.1552 6.41715 36.767 8.62068C36.6689 9.17591 36.5594 9.72728 36.4633 10.2825C36.3249 11.0796 36.7189 11.7548 37.3936 11.896C38.1644 12.0566 38.7871 11.6329 38.9428 10.7758C39.3696 8.43109 39.7694 6.08246 40.1807 3.7377C40.2134 3.55197 40.2537 3.36625 40.3114 3.07025C46.0798 6.35911 49.0899 11.2402 49.3609 17.8914C49.557 17.8914 49.7434 17.8894 49.9299 17.8914C51.335 17.9069 52.396 18.9496 52.396 20.3097C52.396 21.6716 51.3253 22.7453 49.9375 22.7453C43.8828 22.7453 37.8299 22.7318 31.7751 22.7318C26.4911 22.7318 21.2071 22.7415 15.9231 22.7531C15.0486 22.755 14.322 22.4609 13.803 21.7413C13.2456 20.9694 13.1745 20.1143 13.5762 19.2708C13.9856 18.4099 14.6968 17.9243 15.6713 17.8952C15.8885 17.8875 16.1115 17.8933 16.3652 17.8933Z" fill="#973B29"/>
<path d="M52.6804 41.8304C53.8241 42.9815 54.9082 44.0513 55.9654 45.1502C56.3325 45.5313 56.7016 45.7809 57.2552 45.69C57.5204 45.6474 57.8049 45.6435 58.0701 45.69C59.2081 45.8912 59.9731 45.3727 60.7785 44.5969C61.6396 43.7669 61.9452 42.9196 61.9356 41.7395C61.9279 40.6541 61.6742 39.8648 60.8342 39.1625C59.8654 38.3539 59.0062 37.4098 58.0471 36.4715C58.591 35.9356 59.0581 35.4578 59.5521 35.0089C59.6482 34.9219 59.852 34.9141 59.9981 34.9296C62.7813 35.2217 64.9284 36.5605 66.3392 38.9923C67.5656 41.1068 67.754 43.3626 67.0216 45.7016C66.9774 45.8428 67.087 46.0943 67.2061 46.2142C69.1091 48.1489 71.0235 50.0719 72.9342 51.9968C76.1019 55.187 79.2773 58.3694 82.4296 61.5732C83.7924 62.9564 83.7405 65.1077 82.3642 66.4233C81.0245 67.7059 78.9428 67.6402 77.6069 66.2937C73.0418 61.6951 68.4709 57.1023 63.902 52.5056C63.4157 52.0162 62.9313 51.5248 62.4546 51.0276C62.2604 50.8264 62.0798 50.7606 61.7818 50.8515C58.0317 51.9891 54.3027 50.5594 52.2864 47.2028C51.6482 46.1407 51.2907 44.9722 51.2254 43.7282C51.2157 43.558 51.2811 43.3394 51.3907 43.2136C51.7866 42.7493 52.2172 42.3179 52.6804 41.8304ZM78.42 63.9663C78.4257 64.8446 79.1831 65.5914 80.0557 65.5817C80.9303 65.572 81.6915 64.8137 81.6876 63.9508C81.6857 63.0551 80.9188 62.3064 80.0173 62.3161C79.1427 62.3277 78.4123 63.0803 78.42 63.9663Z" fill="#973B29"/>
<path d="M80.1499 52.5424C79.5579 51.9523 78.9928 51.3893 78.5084 50.9076C78.7102 50.1879 78.9908 49.5244 79.0524 48.8415C79.0927 48.3849 78.8794 47.8722 78.6679 47.4369C78.4315 46.9475 77.999 46.7908 77.4896 46.9861C77.0533 47.1545 76.6055 47.3789 76.2672 47.6942C75.3791 48.5222 74.5487 49.4141 73.7126 50.2615C72.344 48.8917 71.0081 47.5569 69.5819 46.131C70.1297 45.6068 70.6852 45.0844 71.233 44.5524C71.5906 44.2061 71.9327 43.8443 72.2921 43.5C73.2263 42.6042 73.3609 41.8652 72.7804 40.6832C72.6554 40.4278 72.4978 40.1879 72.3287 39.8958C72.0192 40.186 71.7539 40.4355 71.5771 40.6C70.789 39.8726 69.9817 39.1896 69.2571 38.4313C68.8861 38.0424 69.0226 37.284 69.4589 36.8391C70.616 35.6609 71.7808 34.4885 72.961 33.3316C73.5166 32.786 74.3488 32.7976 74.9043 33.3355C75.4925 33.9043 76.0538 34.502 76.6401 35.0728C76.8457 35.274 76.8092 35.4152 76.6208 35.5893C76.3748 35.8176 76.1441 36.0614 75.8289 36.3767C76.098 36.5334 76.3056 36.6978 76.5401 36.7791C77.2974 37.0383 78.0682 37.255 78.8255 37.5123C79.0274 37.582 79.2292 37.7096 79.381 37.8605C80.519 38.9923 81.653 40.1279 82.7698 41.281C83.5137 42.049 83.7059 43.0627 83.875 44.0629C84.4498 47.4756 83.0639 50.2769 80.1499 52.5424Z" fill="#973B29"/>
<path d="M56.2806 69.4528C55.8635 69.2381 55.433 69.1259 55.1542 68.8551C53.7818 67.5279 52.4421 66.1679 51.1081 64.8001C50.4142 64.0882 50.4546 63.0841 51.1581 62.3818C51.7366 61.8053 52.3152 61.2307 52.8976 60.66C52.9745 60.5845 53.0725 60.4704 53.159 60.4685C54.0644 60.4685 54.5257 59.772 55.0716 59.2303C56.8688 57.4447 58.6583 55.6493 60.4344 53.8385C60.8976 53.3665 61.5127 53.409 62.0644 53.2388C62.1528 53.2117 62.3162 53.3529 62.4123 53.4497C63.7732 54.8116 65.1321 56.1775 66.4815 57.5491C66.568 57.6362 66.6564 57.8045 66.6314 57.909C66.468 58.5842 66.3219 59.2245 65.7568 59.7681C63.7366 61.7105 61.7837 63.7225 59.8135 65.7171C59.6886 65.8428 59.5694 66.0344 59.556 66.2027C59.5175 66.6883 59.2811 67.0307 58.937 67.3499C58.42 67.8297 57.9625 68.3772 57.4262 68.8318C57.1148 69.0969 56.6958 69.2362 56.2806 69.4528Z" fill="#973B29"/>
<path d="M49.2551 25.1965C49.0264 26.5895 48.8572 27.8973 48.5901 29.1838C48.1326 31.3796 47.4425 33.5057 46.4853 35.5371C44.8515 39.002 42.6795 42.0393 39.4099 44.1229C36.6535 45.8796 33.6646 46.5683 30.418 45.8428C27.1638 45.1154 24.6343 43.2504 22.5218 40.7528C20.1268 37.9205 18.5584 34.6375 17.6203 31.0623C17.1686 29.3405 16.9092 27.5664 16.567 25.8137C16.5343 25.6434 16.5439 25.4635 16.5286 25.2043C17.1552 25.2043 17.753 25.1946 18.3527 25.2159C18.4219 25.2178 18.5238 25.3861 18.543 25.4906C18.8755 27.1776 19.0735 28.9033 19.5425 30.5496C20.7823 34.8986 22.8621 38.7505 26.6103 41.4628C28.9553 43.1614 31.5848 43.885 34.4642 43.4245C37.0014 43.0182 39.1119 41.7511 40.9188 39.9499C43.4868 37.3924 45.1225 34.2776 46.0951 30.8205C46.5814 29.0929 46.8217 27.2956 47.1907 25.5332C47.2177 25.4055 47.3753 25.2178 47.4829 25.2101C48.0192 25.1791 48.5612 25.1965 49.2551 25.1965Z" fill="#973B29"/>
<path d="M78.42 63.9663C78.4143 63.0802 79.1427 62.3277 80.0173 62.3161C80.9188 62.3044 81.6858 63.0551 81.6877 63.9508C81.6896 64.8136 80.9303 65.572 80.0558 65.5817C79.1812 65.5914 78.4258 64.8446 78.42 63.9663Z" fill="white"/>
</svg>
