<svg width="46" height="46" viewBox="0 0 46 46" fill="none" xmlns="http://www.w3.org/2000/svg">
<path fill-rule="evenodd" clip-rule="evenodd" d="M39.7854 0.04052C39.6367 0.0821773 39.4984 0.154752 39.3797 0.2535L5.21638 28.6921C5.04015 28.8388 4.91429 29.037 4.85646 29.2588C4.79864 29.4807 4.81175 29.7151 4.89395 29.9292C4.97616 30.1432 5.12334 30.3261 5.31482 30.4522C5.5063 30.5784 5.73247 30.6413 5.96158 30.6324L23.4218 29.9525L31.5638 45.414C31.6707 45.6167 31.8383 45.781 32.0433 45.8836C32.2482 45.9862 32.4801 46.0221 32.7065 45.9862C32.9329 45.9504 33.1423 45.8445 33.3055 45.6836C33.4687 45.5226 33.5774 45.3146 33.6163 45.0888L41.1631 1.28298C41.1943 1.10057 41.1788 0.913242 41.1182 0.738405C41.0575 0.563568 40.9537 0.406901 40.8162 0.28297C40.6788 0.159038 40.5123 0.0718665 40.3321 0.0295582C40.152 -0.0127501 39.9641 -0.00882105 39.7858 0.04098L39.7854 0.04052ZM38.4937 3.84794L32.0008 41.5334L25.0419 28.3167C24.9454 28.1335 24.799 27.9814 24.6197 27.8778C24.4404 27.7743 24.2354 27.7236 24.0285 27.7316L9.10338 28.3135L38.4937 3.84794Z" fill="white"/>
</svg>
