<svg width="278" height="66" viewBox="0 0 278 66" fill="none" xmlns="http://www.w3.org/2000/svg">
<g clip-path="url(#clip0_1_39)">
<path d="M0.00393879 39.2288C11.725 39.2288 23.2644 39.2288 34.8907 39.2288C34.8907 40.5476 34.9974 41.8309 34.8631 43.0866C34.713 44.4804 33.5792 45.3333 32.0622 45.3491C29.2573 45.3767 26.4525 45.357 23.6437 45.3609C21.5539 45.3649 20.6927 46.2217 20.6927 48.2986C20.6887 53.3409 20.6927 58.3832 20.6887 63.4216C20.6887 65.3919 20.0645 65.996 18.0616 66C17.5994 66 17.1372 66.0039 16.675 66C14.9684 65.9881 14.2929 65.3169 14.2929 63.5835C14.285 58.707 14.2889 53.8306 14.2889 48.9541C14.2889 48.6264 14.3008 48.2947 14.285 47.967C14.2099 46.2849 13.2776 45.3688 11.5789 45.357C8.77403 45.3372 5.96918 45.3491 3.16038 45.3372C1.03502 45.3293 0.0197408 44.3146 0.00393879 42.1744C-0.00396219 41.2228 0.00393879 40.2712 0.00393879 39.2288Z" fill="#111526"/>
<path d="M34.9302 35.379H0V38.4273H34.9302V35.379Z" fill="#111526"/>
<path d="M13.566 34.2655H0V7.36011L13.566 12.7854V34.2655Z" fill="#111526"/>
<path d="M17.876 34.2655H34.9302V0L17.876 7.3601V34.2655Z" fill="#878886"/>
<path d="M23.379 34.2655H9.10193V20.5127L23.379 16.8485V34.2655Z" fill="#973B29"/>
<path d="M30.1107 15.9048H27.6574V18.3568H30.1107V15.9048Z" fill="white"/>
<path d="M30.1107 20.8128H27.6574V23.2649H30.1107V20.8128Z" fill="white"/>
<path d="M17.876 25.555H15.4227V28.0071H17.876V25.555Z" fill="white"/>
<path d="M204.098 12.7617C205.686 12.7617 207.227 12.742 208.768 12.7893C208.926 12.7933 209.171 13.1684 209.21 13.4014C209.581 15.5099 209.913 17.6263 210.257 19.7427C210.688 22.4041 211.118 25.0693 211.549 27.7306C211.569 27.8531 211.624 27.9676 211.786 28.0939C211.853 27.7109 211.928 27.3318 211.983 26.9488C212.667 22.4159 213.35 17.883 214.018 13.35C214.081 12.9157 214.231 12.7341 214.709 12.7459C216.183 12.7814 217.66 12.7578 219.177 12.7578C219.177 20.4061 219.177 27.9794 219.177 35.5922C218.028 35.5922 216.902 35.5922 215.685 35.5922C215.685 30.7276 215.685 25.9025 215.685 21.0813C215.638 21.0773 215.59 21.0773 215.543 21.0734C214.804 25.9064 214.069 30.7434 213.327 35.6001C212.141 35.6001 211.012 35.6001 209.838 35.6001C209.013 30.6565 208.195 25.7327 207.373 20.8128C207.334 20.8167 207.294 20.8167 207.255 20.8207C207.255 25.7248 207.255 30.6289 207.255 35.5843C206.172 35.5843 205.153 35.5843 204.086 35.5843C204.098 28.0189 204.098 20.4416 204.098 12.7617Z" fill="#162638"/>
<path d="M83.9045 35.6712C80.8507 35.6712 77.876 35.6712 74.842 35.6712C74.842 36.532 74.842 37.3612 74.842 38.293C73.6332 38.293 72.4836 38.3009 71.334 38.2772C71.251 38.2772 71.1049 38.0364 71.1009 37.9061C71.0851 36.0858 71.0891 34.2694 71.0891 32.4176C71.6856 32.386 72.2387 32.4018 72.7799 32.311C73.9018 32.1214 74.3403 31.6081 74.3443 30.4749C74.3561 24.8601 74.3561 19.2413 74.3601 13.6264C74.3601 12.7578 74.3601 12.7578 75.2292 12.7578C78.4962 12.7578 81.7633 12.7578 85.0264 12.7578C85.2595 12.7578 85.4886 12.7578 85.8244 12.7578C85.8244 13.0815 85.8244 13.35 85.8244 13.6225C85.8244 19.5808 85.8244 25.5392 85.8244 31.4976C85.8244 32.3307 85.8283 32.3307 86.6777 32.3307C86.8278 32.3307 86.9779 32.3426 87.1281 32.3268C87.531 32.2873 87.7088 32.4294 87.7009 32.8638C87.6811 34.4945 87.6811 36.1213 87.7009 37.7521C87.7048 38.1746 87.5508 38.3167 87.136 38.3049C86.2352 38.2812 85.3306 38.2772 84.4299 38.3049C83.9835 38.3167 83.8847 38.1311 83.8966 37.7323C83.9203 37.0611 83.9045 36.3819 83.9045 35.6712ZM82.1109 16.2009C80.7401 16.2009 79.4285 16.2009 77.9945 16.2009C77.9945 21.5867 77.9945 26.9094 77.9945 32.2794C79.2982 32.2794 80.6927 32.2794 82.1109 32.2794C82.1109 26.8936 82.1109 21.5709 82.1109 16.2009Z" fill="#162638"/>
<path d="M159.944 59.5876C159.944 60.9024 159.944 62.0949 159.944 63.3426C158.782 63.3426 157.656 63.3426 156.443 63.3426C156.443 62.4937 156.443 61.6448 156.443 60.7958C156.443 59.5915 156.443 59.6152 155.266 59.5797C154.583 59.5599 153.891 59.5165 153.22 59.3901C150.976 58.9637 149.878 57.3093 149.791 55.3073C149.668 52.5552 149.653 49.7873 149.791 47.0351C149.909 44.7015 151.296 43.0352 153.966 42.8339C154.757 42.7746 155.547 42.7312 156.4 42.6799C156.42 42.3285 156.443 41.9731 156.467 41.5743C157.613 41.5743 158.735 41.5743 159.908 41.5743C159.928 41.9494 159.948 42.3008 159.971 42.6799C160.765 42.7312 161.532 42.7707 162.294 42.8299C164.961 43.0431 166.569 44.6818 166.632 47.3905C166.695 49.9176 166.766 52.4525 166.612 54.9717C166.442 57.7791 165.059 59.5283 161.425 59.5836C160.967 59.5955 160.497 59.5876 159.944 59.5876ZM156.443 56.3458C156.443 55.9983 156.443 55.7456 156.443 55.4929C156.443 52.8829 156.443 50.2729 156.443 47.6629C156.443 45.819 156.443 45.819 154.587 45.9967C153.812 46.0717 153.267 46.5337 153.259 47.3076C153.228 49.8939 153.228 52.4841 153.263 55.0704C153.271 55.7733 153.797 56.2787 154.496 56.334C155.108 56.3853 155.728 56.3458 156.443 56.3458ZM159.983 56.3616C160.493 56.3616 160.943 56.3655 161.389 56.3616C162.571 56.3537 163.132 55.8996 163.155 54.719C163.207 52.3617 163.195 50.0044 163.159 47.6471C163.147 46.6877 162.717 46.123 161.982 46.0401C161.334 45.969 160.67 46.0243 159.983 46.0243C159.983 49.4714 159.983 52.8671 159.983 56.3616Z" fill="#162638"/>
<path d="M206.583 41.5901C206.583 41.8744 206.583 42.1271 206.583 42.3798C206.583 48.038 206.583 53.6924 206.583 59.3506C206.583 60.2272 206.583 60.2272 207.456 60.2272C208.369 60.2272 208.369 60.2272 208.369 61.1196C208.369 62.5332 208.357 63.9467 208.377 65.3603C208.381 65.771 208.258 65.9368 207.827 65.925C206.99 65.9013 206.152 65.9013 205.315 65.925C204.888 65.9368 204.75 65.767 204.762 65.3564C204.786 64.7207 204.766 64.081 204.766 63.4137C201.839 63.4137 198.99 63.4137 196.059 63.4137C196.059 64.2192 196.059 65.0207 196.059 65.9092C194.913 65.9092 193.847 65.921 192.78 65.8934C192.677 65.8894 192.492 65.6407 192.492 65.5064C192.472 63.8796 192.468 62.2489 192.5 60.6221C192.504 60.4918 192.776 60.2667 192.93 60.2588C195.372 60.164 195.644 59.8916 195.644 57.4553C195.644 52.4644 195.644 47.4694 195.644 42.4785C195.644 42.2021 195.644 41.9257 195.644 41.594C199.283 41.5901 202.881 41.5901 206.583 41.5901ZM199.109 44.7726C199.109 49.9452 199.109 55.0507 199.109 60.1798C200.365 60.1798 201.68 60.1798 203.02 60.1798C203.02 55.023 203.02 49.9136 203.02 44.7726C201.74 44.7726 200.503 44.7726 199.109 44.7726Z" fill="#973B29"/>
<path d="M94.6143 35.6198C94.6143 35.3276 94.6143 35.1184 94.6143 34.9091C94.6143 27.7741 94.6222 20.643 94.6024 13.508C94.6024 12.9354 94.7288 12.7301 95.3412 12.7459C96.9925 12.7893 98.6477 12.7498 100.303 12.7735C100.836 12.7814 101.378 12.8407 101.899 12.9433C103.76 13.3145 104.984 14.4319 105.217 16.3075C105.395 17.7329 105.364 19.2097 105.237 20.6469C105.13 21.8394 104.447 22.8029 103.309 23.4228C103.412 23.5175 103.459 23.5886 103.527 23.6202C104.641 24.1493 105.265 25.0693 105.529 26.2302C105.956 28.1136 105.964 30.0247 105.589 31.9043C105.142 34.1391 103.617 35.4895 101.334 35.6001C99.1297 35.7067 96.9174 35.6198 94.6143 35.6198ZM98.3356 32.2833C99.1455 32.2833 99.9119 32.3268 100.674 32.2715C101.5 32.2122 102.014 31.6871 102.045 30.846C102.089 29.6101 102.093 28.3703 102.037 27.1344C101.998 26.2341 101.429 25.5866 100.595 25.4918C99.8605 25.4089 99.1099 25.476 98.3356 25.476C98.3356 27.7425 98.3356 29.9774 98.3356 32.2833ZM98.3356 22.1079C99.0507 22.0526 99.7381 22.0566 100.402 21.9381C101.097 21.8157 101.595 21.33 101.642 20.6311C101.717 19.5729 101.709 18.4989 101.642 17.4407C101.603 16.8287 101.204 16.3114 100.564 16.2325C99.8329 16.1416 99.0823 16.2127 98.3356 16.2127C98.3356 18.1554 98.3356 20.0784 98.3356 22.1079Z" fill="#162638"/>
<path d="M132.823 35.6001C131.615 35.6001 130.461 35.6001 129.24 35.6001C129.24 29.1245 129.24 22.6805 129.24 16.189C127.85 16.189 126.53 16.189 125.108 16.189C125.108 16.4339 125.108 16.6787 125.108 16.9274C125.108 21.3419 125.124 25.7603 125.092 30.1748C125.088 30.9566 124.966 31.7582 124.76 32.5123C124.279 34.3129 123.01 35.3198 121.201 35.6041C120.379 35.7304 119.534 35.7028 118.7 35.7225C118.29 35.7344 118.096 35.5448 118.112 35.0947C118.143 34.2221 118.12 33.3455 118.12 32.3899C118.523 32.3899 118.854 32.3939 119.19 32.3899C120.786 32.3663 121.418 31.7384 121.418 30.1511C121.422 24.6429 121.418 19.1347 121.418 13.6264C121.418 13.3737 121.418 13.121 121.418 12.817C125.242 12.817 129.007 12.817 132.823 12.817C132.823 20.3982 132.823 27.9715 132.823 35.6001Z" fill="#162638"/>
<path d="M158.423 35.5962C157.17 35.5962 155.977 35.5962 154.709 35.5962C154.709 35.304 154.709 35.0552 154.709 34.8025C154.709 32.0583 154.697 29.318 154.721 26.5737C154.725 26.0644 154.614 25.8433 154.053 25.8709C153.153 25.9143 152.248 25.9064 151.347 25.8748C150.865 25.8591 150.723 26.0209 150.727 26.4987C150.747 29.2627 150.735 32.0267 150.735 34.7907C150.735 35.0434 150.735 35.2961 150.735 35.5922C149.494 35.5922 148.325 35.5922 147.108 35.5922C147.108 28.0189 147.108 20.4416 147.108 12.7696C148.211 12.7696 149.317 12.7538 150.423 12.7973C150.533 12.8012 150.719 13.1645 150.723 13.3619C150.747 15.2059 150.739 17.0459 150.739 18.8899C150.739 20.0863 150.739 21.2827 150.739 22.5225C152.07 22.5225 153.346 22.5225 154.713 22.5225C154.713 22.258 154.713 22.0092 154.713 21.7605C154.713 18.9728 154.725 16.1891 154.701 13.4014C154.697 12.8881 154.851 12.7341 155.361 12.7538C156.364 12.7894 157.372 12.7657 158.427 12.7657C158.423 20.3982 158.423 27.9715 158.423 35.5962Z" fill="#162638"/>
<path d="M278 12.8801C278 20.414 278 27.9873 278 35.5962C276.795 35.5962 275.626 35.5962 274.366 35.5962C274.366 32.536 274.366 29.4838 274.366 26.3052C273.595 26.3802 272.912 26.3881 272.256 26.5224C271.683 26.6408 271.253 27.0436 271.106 27.628C270.984 28.1215 270.889 28.6349 270.877 29.1442C270.846 30.621 270.861 32.1017 270.857 33.5784C270.857 33.8351 270.854 34.0918 270.826 34.3484C270.688 35.6317 270.688 35.6317 269.412 35.6317C268.578 35.6317 267.741 35.6317 266.84 35.6317C267.448 33.1165 267.053 30.6091 267.247 28.1294C267.361 26.6408 267.812 25.2549 269.329 24.556C269.313 24.477 269.317 24.4178 269.293 24.402C267.954 23.5728 267.334 22.2816 267.27 20.8009C267.203 19.2728 267.215 17.7053 267.464 16.2009C267.804 14.1753 269.103 13.0262 271.177 12.9078C273.417 12.7814 275.677 12.8801 278 12.8801ZM274.31 16.1614C273.682 16.1614 273.105 16.1377 272.529 16.1653C271.616 16.2127 271.071 16.5997 271.008 17.5078C270.913 18.8661 270.948 20.2402 271.012 21.6025C271.039 22.2501 271.486 22.7397 272.126 22.8739C272.821 23.02 273.548 23.0279 274.31 23.1029C274.31 20.7259 274.31 18.4831 274.31 16.1614Z" fill="#162638"/>
<path d="M259.369 35.5962C258.074 35.5962 256.881 35.5962 255.636 35.5962C255.636 32.3742 255.636 29.1877 255.636 25.942C254.293 25.942 253.005 25.942 251.63 25.942C251.63 29.1521 251.63 32.3505 251.63 35.5922C250.382 35.5922 249.213 35.5922 247.964 35.5922C247.964 35.3158 247.964 35.0671 247.964 34.8183C247.964 27.7504 247.964 20.6786 247.964 13.6107C247.964 12.7617 247.964 12.7617 248.79 12.7617C249.707 12.7617 250.623 12.7617 251.603 12.7617C251.603 16.043 251.603 19.2492 251.603 22.5067C252.958 22.5067 254.25 22.5067 255.62 22.5067C255.62 19.2729 255.62 16.0509 255.62 12.7657C256.806 12.7657 257.916 12.7538 259.026 12.7815C259.14 12.7854 259.283 12.9907 259.358 13.1289C259.409 13.2316 259.369 13.3816 259.369 13.508C259.369 20.643 259.369 27.7741 259.369 34.9091C259.369 35.1224 259.369 35.3316 259.369 35.5962Z" fill="#162638"/>
<path d="M232.798 35.5962C231.538 35.5962 230.345 35.5962 229.097 35.5962C229.097 29.1166 229.097 22.6765 229.097 16.1851C227.742 16.1851 226.45 16.1851 225.091 16.1851C225.091 22.6686 225.091 29.1087 225.091 35.5922C223.859 35.5922 222.689 35.5922 221.484 35.5922C221.484 27.9992 221.484 20.4258 221.484 12.8051C221.69 12.7893 221.875 12.7657 222.061 12.7657C225.435 12.7617 228.804 12.7735 232.178 12.7538C232.656 12.7499 232.862 12.8486 232.862 13.3816C232.846 20.6233 232.85 27.8649 232.85 35.1065C232.842 35.2526 232.814 35.3987 232.798 35.5962Z" fill="#162638"/>
<path d="M191.152 24.1849C191.152 22.258 191.129 20.3271 191.16 18.4002C191.184 17.0893 191.338 15.7823 192.093 14.657C193.345 12.7893 195.237 12.4182 197.303 12.5485C198.97 12.6551 200.389 13.275 201.313 14.7439C202.036 15.8929 202.17 17.2038 202.178 18.5068C202.206 22.3211 202.234 26.1354 202.159 29.9458C202.139 31.0316 201.898 32.157 201.534 33.1876C201.076 34.4906 200.013 35.2645 198.674 35.6435C197.252 36.0424 195.83 36.0068 194.427 35.5962C192.729 35.0986 191.362 33.3771 191.295 31.4383C191.212 29.0218 191.275 26.6014 191.275 24.1849C191.235 24.1849 191.192 24.1849 191.152 24.1849ZM194.83 24.1809C194.83 25.5076 194.822 26.8383 194.834 28.165C194.842 29.1284 194.834 30.0958 194.917 31.0514C195.004 32.0306 195.684 32.5755 196.663 32.5755C197.647 32.5755 198.283 32.0267 198.402 31.0474C198.457 30.5815 198.496 30.1077 198.496 29.6378C198.504 26.0802 198.504 22.5225 198.496 18.9688C198.496 18.4555 198.465 17.9422 198.406 17.4328C198.287 16.4181 197.698 15.9047 196.691 15.8969C195.648 15.889 195.04 16.4023 194.905 17.4368C194.858 17.7961 194.834 18.1633 194.834 18.5266C194.83 20.41 194.83 22.2975 194.83 24.1809Z" fill="#162638"/>
<path d="M181.96 12.7617C181.96 15.9363 181.96 19.0359 181.96 22.1356C182.007 22.1553 182.054 22.175 182.102 22.1948C182.205 22.0092 182.311 21.8315 182.402 21.642C183.729 18.8859 185.065 16.1338 186.368 13.3658C186.582 12.9157 186.819 12.7222 187.332 12.7499C188.269 12.7972 189.213 12.7617 190.271 12.7617C190.133 13.0776 190.046 13.3027 189.94 13.5238C188.478 16.5049 187.02 19.49 185.543 22.4593C185.353 22.8424 185.345 23.1543 185.499 23.5452C187.008 27.324 188.494 31.1106 189.987 34.8973C190.07 35.1105 190.149 35.3277 190.26 35.6278C189.019 35.6278 187.866 35.6475 186.716 35.6041C186.558 35.5962 186.356 35.2882 186.274 35.0789C185.274 32.5321 184.294 29.9774 183.311 27.4266C183.236 27.2371 183.153 27.0476 183.014 26.7119C182.54 27.6991 181.916 28.4295 181.96 29.5075C182.035 31.2843 181.979 33.0651 181.979 34.842C181.979 35.075 181.979 35.304 181.979 35.5843C180.755 35.5843 179.581 35.5843 178.333 35.5843C178.321 35.3711 178.301 35.146 178.301 34.9249C178.301 27.7899 178.309 20.6549 178.286 13.5198C178.286 12.8881 178.475 12.7143 179.084 12.7459C180.028 12.7972 180.968 12.7617 181.96 12.7617Z" fill="#162638"/>
<path d="M45.2252 35.6357C45.2252 35.3474 45.2252 35.1579 45.2252 34.9683C45.2252 27.8136 45.2331 20.6549 45.2134 13.5001C45.2134 12.9118 45.3674 12.742 45.964 12.7499C48.6701 12.7815 51.3761 12.7617 54.0822 12.7617C54.2719 12.7617 54.4615 12.7617 54.7696 12.7617C54.7696 13.8199 54.7854 14.8386 54.7459 15.8495C54.742 15.9521 54.4022 16.118 54.2205 16.1219C52.7154 16.1456 51.2142 16.1338 49.709 16.1338C49.476 16.1338 49.2429 16.1338 48.9624 16.1338C48.9624 17.8711 48.9624 19.5493 48.9624 21.2906C49.6932 21.3261 50.4359 21.3222 51.1747 21.4011C54.102 21.7052 55.4333 22.7436 55.7928 25.634C56.0496 27.7109 55.9548 29.8787 55.6782 31.9596C55.3898 34.1471 53.8294 35.4422 51.6171 35.5922C49.7367 35.7186 47.8405 35.6278 45.9482 35.6357C45.7348 35.6357 45.5255 35.6357 45.2252 35.6357ZM48.9505 32.3307C49.4918 32.3307 50.0014 32.3544 50.511 32.3268C51.7001 32.2636 52.2295 31.7582 52.269 30.5618C52.3124 29.1916 52.3085 27.8175 52.269 26.4474C52.2413 25.4129 51.7514 24.8087 50.8863 24.7179C50.2542 24.6547 49.6142 24.7061 48.9505 24.7061C48.9505 27.2608 48.9505 29.7563 48.9505 32.3307Z" fill="#162638"/>
<path d="M246.692 35.6041C245.44 35.6041 244.247 35.6041 243.007 35.6041C242.825 34.4235 242.619 33.2705 242.485 32.1096C242.434 31.6595 242.268 31.5331 241.841 31.541C240.767 31.5647 239.692 31.5726 238.622 31.5371C238.136 31.5213 238.001 31.7305 237.946 32.1609C237.8 33.3021 237.614 34.4393 237.444 35.6001C236.307 35.6001 235.22 35.6001 234.067 35.6001C234.3 34.1076 234.525 32.6545 234.758 31.2054C235.706 25.2865 236.662 19.3676 237.59 13.4448C237.673 12.9157 237.847 12.7301 238.396 12.7499C239.728 12.7933 241.059 12.8052 242.39 12.7459C242.983 12.7183 243.117 12.9789 243.192 13.4567C243.647 16.3707 244.117 19.2847 244.583 22.1988C245.258 26.4276 245.934 30.6565 246.605 34.8854C246.641 35.0947 246.657 35.304 246.692 35.6041ZM240.261 17.6026C240.221 17.6066 240.178 17.6145 240.138 17.6184C239.609 21.1642 239.076 24.714 238.543 28.2795C239.716 28.2795 240.759 28.2795 241.869 28.2795C241.328 24.6863 240.794 21.1445 240.261 17.6026Z" fill="#162638"/>
<path d="M172.344 35.6041C171.06 35.6041 169.887 35.6041 168.631 35.6041C168.453 34.4629 168.232 33.3139 168.109 32.157C168.054 31.6318 167.852 31.5291 167.382 31.541C166.351 31.5686 165.32 31.5765 164.289 31.537C163.783 31.5173 163.621 31.7108 163.562 32.1807C163.42 33.3218 163.234 34.455 163.064 35.5962C161.903 35.5962 160.817 35.5962 159.679 35.5962C160.066 33.231 160.449 30.9132 160.821 28.5914C161.63 23.5175 162.444 18.4397 163.238 13.3619C163.305 12.9275 163.432 12.738 163.918 12.7499C165.482 12.7814 167.046 12.7617 168.69 12.7617C169.903 20.3745 171.116 27.9478 172.344 35.6041ZM164.159 28.2874C165.32 28.2874 166.359 28.2874 167.489 28.2874C166.948 24.6942 166.418 21.1524 165.885 17.6105C165.846 17.6105 165.802 17.6145 165.763 17.6145C165.229 21.1484 164.7 24.6824 164.159 28.2874Z" fill="#162638"/>
<path d="M124.875 63.3584C123.729 63.3584 122.6 63.3584 121.379 63.3584C121.379 57.171 121.379 50.9955 121.379 44.7805C120.071 44.7805 118.854 44.7805 117.555 44.7805C117.555 50.9521 117.555 57.1276 117.555 63.3505C116.35 63.3505 115.228 63.3505 114.07 63.3505C114.07 56.0931 114.07 48.8593 114.07 41.5822C117.669 41.5822 121.241 41.5822 124.875 41.5822C124.875 48.8317 124.875 56.0773 124.875 63.3584Z" fill="#162638"/>
<path d="M138.251 52.4604C138.251 50.1939 138.141 47.9196 138.279 45.6571C138.441 43.0352 140.179 41.4637 142.806 41.2939C143.908 41.2228 144.995 41.3176 146.014 41.7954C147.713 42.589 148.515 44.0342 148.566 45.7953C148.677 49.8583 148.669 53.9293 148.677 57.9963C148.677 58.6517 148.59 59.323 148.448 59.9627C148.041 61.7908 146.954 63.0149 145.094 63.4492C143.525 63.8125 141.973 63.7809 140.531 62.9912C138.623 61.9488 138.208 60.1285 138.161 58.1779C138.113 56.2747 138.149 54.3676 138.149 52.4604C138.18 52.4604 138.216 52.4604 138.251 52.4604ZM145.109 52.5078C145.109 50.4111 145.129 48.3105 145.102 46.2138C145.086 45.1398 144.505 44.5357 143.581 44.5001C142.431 44.4528 141.759 44.9068 141.744 46.0598C141.688 50.34 141.692 54.6203 141.744 58.9005C141.755 59.9548 142.502 60.5036 143.486 60.4562C144.473 60.4088 145.082 59.8087 145.098 58.7386C145.133 56.6617 145.109 54.5847 145.109 52.5078Z" fill="#162638"/>
<path d="M167.829 63.3426C167.829 56.0931 167.829 48.8633 167.829 41.5822C170.843 41.5822 173.833 41.5822 176.911 41.5822C176.911 42.5259 176.931 43.4617 176.887 44.3975C176.879 44.5199 176.536 44.7173 176.342 44.7213C174.924 44.7489 173.51 44.737 172.091 44.737C171.858 44.737 171.621 44.737 171.337 44.737C171.337 46.3836 171.337 47.9946 171.337 49.6451C172.04 49.6885 172.739 49.732 173.438 49.7714C176.346 49.9254 177.677 51.4733 177.918 53.9569C178.1 55.8364 178.049 57.7752 177.816 59.6507C177.543 61.8422 176.22 63.0939 173.964 63.3031C171.945 63.4887 169.895 63.3426 167.829 63.3426ZM171.309 60.2233C171.846 60.2233 172.313 60.243 172.783 60.2193C173.952 60.164 174.47 59.6744 174.505 58.5096C174.541 57.2066 174.537 55.9035 174.505 54.6005C174.485 53.6845 174.102 53.0961 173.403 53.0014C172.719 52.9105 172.016 52.9816 171.309 52.9816C171.309 55.3863 171.309 57.7515 171.309 60.2233Z" fill="#973B29"/>
<path d="M138.777 12.7617C138.777 15.6599 138.777 18.4437 138.777 21.2827C139.614 21.3301 140.42 21.3498 141.222 21.4209C143.928 21.6657 145.477 23.0516 145.714 25.8117C145.88 27.7622 145.852 29.7642 145.603 31.7029C145.275 34.2497 143.49 35.612 140.914 35.6317C139.006 35.6475 137.094 35.6357 135.091 35.6357C135.091 35.3711 135.091 35.1421 135.091 34.917C135.091 27.782 135.099 20.6509 135.075 13.5159C135.071 12.8762 135.269 12.7183 135.877 12.7538C136.813 12.7972 137.754 12.7617 138.777 12.7617ZM138.816 32.3307C139.342 32.3307 139.828 32.3465 140.314 32.3268C141.55 32.2754 142.091 31.7779 142.127 30.5539C142.17 29.1837 142.166 27.8136 142.127 26.4434C142.099 25.4089 141.605 24.8048 140.74 24.7179C140.108 24.6547 139.468 24.7061 138.812 24.7061C138.816 27.2647 138.816 29.7602 138.816 32.3307Z" fill="#162638"/>
<path d="M58.6134 35.7146C58.6134 34.613 58.6213 33.693 58.6095 32.773C58.6055 32.4176 58.7636 32.3386 59.0836 32.3663C59.4035 32.3939 59.7314 32.3939 60.0475 32.3505C61.5684 32.1254 62.2281 31.0751 61.7738 29.5786C60.7467 26.1789 59.7077 22.7792 58.6727 19.3795C58.0683 17.3973 57.4599 15.4191 56.8555 13.4369C56.8002 13.2592 56.7607 13.0737 56.6856 12.7617C57.6337 12.7617 58.5305 12.817 59.4114 12.7459C60.1502 12.6867 60.4346 12.9394 60.6361 13.6501C61.7817 17.6816 62.9906 21.6933 64.2982 25.7327C64.4286 25.2312 64.5668 24.7337 64.6893 24.2283C65.5861 20.5759 66.4907 16.9274 67.3677 13.2711C67.4586 12.8841 67.5929 12.738 67.9998 12.7499C69.023 12.7775 70.0501 12.7578 71.1168 12.7578C71.093 12.9868 71.097 13.1368 71.0575 13.275C69.3509 19.3439 67.6561 25.4129 65.914 31.4699C65.6611 32.3426 65.2266 33.1757 64.7841 33.9773C64.1125 35.1974 62.9945 35.7067 61.6277 35.7107C60.6479 35.7186 59.6682 35.7146 58.6134 35.7146Z" fill="#162638"/>
<path d="M117.409 32.311C117.409 33.3692 117.397 34.2892 117.413 35.2053C117.42 35.683 117.112 35.6317 116.808 35.6317C114.509 35.6317 112.21 35.6317 109.914 35.6317C109.144 35.6317 108.374 35.6317 107.521 35.6317C107.521 35.3514 107.521 35.1223 107.521 34.8933C107.521 27.778 107.532 20.6667 107.505 13.5514C107.501 12.8841 107.694 12.7341 108.334 12.742C111.127 12.7775 113.92 12.7696 116.709 12.7459C117.223 12.742 117.452 12.8565 117.416 13.4172C117.373 14.1003 117.377 14.7913 117.416 15.4744C117.444 15.9837 117.266 16.1496 116.757 16.1417C115.188 16.118 113.62 16.1338 112.052 16.1338C111.799 16.1338 111.542 16.1338 111.242 16.1338C111.242 18.2304 111.242 20.2679 111.242 22.4041C112.372 22.4041 113.482 22.4041 114.592 22.4041C116.129 22.4041 116.129 22.4041 116.129 23.9519C116.129 24.5047 116.129 25.0614 116.129 25.6893C114.481 25.6893 112.881 25.6893 111.242 25.6893C111.242 27.9123 111.242 30.0642 111.242 32.311C113.268 32.311 115.295 32.311 117.409 32.311Z" fill="#162638"/>
<path d="M127.095 41.4163C129.45 41.5387 131.749 41.5427 134.013 41.8112C135.632 42.0047 136.6 43.1932 136.983 44.7449C137.181 45.5426 137.248 46.3915 137.244 47.2167C137.236 48.7093 137.28 50.2255 137.039 51.6904C136.695 53.7713 135.225 54.9598 133.124 55.1336C132.294 55.2007 131.461 55.2244 130.564 55.2678C130.564 57.9607 130.564 60.626 130.564 63.3426C129.379 63.3426 128.253 63.3426 127.095 63.3426C127.095 56.0931 127.095 48.8633 127.095 41.4163ZM130.583 51.9905C131.105 51.9905 131.591 51.9984 132.081 51.9905C133.183 51.9708 133.72 51.5049 133.76 50.4032C133.807 49.0568 133.795 47.7103 133.764 46.3639C133.74 45.4715 133.309 44.8634 132.626 44.7884C131.958 44.7173 131.275 44.7726 130.583 44.7726C130.583 47.2009 130.583 49.5622 130.583 51.9905Z" fill="#162638"/>
<path d="M180.577 63.4019C180.577 62.3989 180.561 61.5026 180.593 60.6063C180.597 60.4799 180.822 60.2943 180.972 60.2588C181.217 60.2035 181.486 60.2667 181.742 60.2509C183.299 60.1601 184.042 59.1137 183.591 57.6133C182.489 53.9451 181.371 50.2808 180.257 46.6166C179.826 45.2069 179.388 43.7973 178.957 42.3877C178.882 42.1468 178.827 41.8981 178.736 41.5466C179.89 41.5466 180.972 41.5308 182.054 41.5703C182.177 41.5743 182.339 41.8981 182.398 42.0994C183.512 45.8308 184.614 49.5661 185.717 53.2975C185.776 53.4989 185.839 53.7042 186.009 53.9214C186.262 52.9145 186.518 51.9116 186.767 50.9047C187.494 47.9551 188.225 45.0095 188.928 42.056C189.019 41.673 189.15 41.515 189.556 41.5269C190.536 41.5506 191.52 41.5348 192.582 41.5348C192.041 43.4775 191.528 45.3293 191.006 47.1812C189.853 51.2759 188.723 55.3745 187.514 59.4533C187.237 60.3812 186.756 61.2736 186.242 62.0988C185.72 62.9359 184.895 63.4019 183.864 63.4019C182.797 63.4019 181.73 63.4019 180.577 63.4019Z" fill="#973B29"/>
<path d="M261.613 12.7893C262.83 12.7893 263.984 12.7893 265.196 12.7893C265.196 20.3745 265.196 27.9478 265.196 35.5764C264.031 35.5764 262.842 35.5764 261.613 35.5764C261.613 28.007 261.613 20.4337 261.613 12.7893Z" fill="#162638"/>
<path d="M88.7991 12.7972C90.0119 12.7972 91.1615 12.7972 92.3546 12.7972C92.3546 20.4021 92.3546 27.9715 92.3546 35.5883C91.1734 35.5883 90.008 35.5883 88.7991 35.5883C88.7991 27.9992 88.7991 20.4298 88.7991 12.7972Z" fill="#162638"/>
<path d="M212.248 48.0341C211.513 48.0341 210.853 48.0578 210.194 48.0183C210.055 48.0104 209.822 47.7893 209.811 47.6511C209.645 45.6531 209.51 43.6551 209.364 41.594C210.502 41.594 211.58 41.594 212.75 41.594C212.588 43.7065 212.422 45.8189 212.248 48.0341Z" fill="#162638"/>
<path d="M107.05 48.042C106.324 48.042 105.66 48.0617 105.004 48.0262C104.862 48.0183 104.629 47.7972 104.617 47.6629C104.451 45.661 104.321 43.6591 104.174 41.594C105.32 41.594 106.399 41.594 107.56 41.594C107.394 43.7065 107.228 45.8189 107.05 48.042Z" fill="#162638"/>
<path d="M213.749 41.5782C214.851 41.5782 215.914 41.5782 217.064 41.5782C217.008 42.5298 216.957 43.4577 216.894 44.3856C216.823 45.3846 216.72 46.3836 216.669 47.3865C216.645 47.8604 216.499 48.0538 215.981 48.0538C214.16 48.0538 214.156 48.0736 214.034 46.273C213.939 44.8871 213.844 43.5012 213.753 42.1152C213.741 41.9494 213.749 41.7835 213.749 41.5782Z" fill="#162638"/>
<path d="M111.89 41.594C111.771 43.1774 111.657 44.7094 111.542 46.2414C111.511 46.6679 111.475 47.0943 111.459 47.5208C111.447 47.888 111.297 48.0341 110.91 48.0499C108.943 48.1367 108.955 48.1446 108.84 46.202C108.749 44.6857 108.631 43.1734 108.52 41.594C109.63 41.594 110.705 41.594 111.89 41.594Z" fill="#162638"/>
</g>
<defs>
<clipPath id="clip0_1_39">
<rect width="278" height="66" fill="white"/>
</clipPath>
</defs>
</svg>
