<svg width="91" height="97" fill="none" xmlns="http://www.w3.org/2000/svg"><path d="M83.069 29.808c1.406.708 2.556 1.6 3.695 2.52.665.538 1.347 1.067 2.073 1.517 2.02 1.252 2.712 3.526 1.706 5.673a41.776 41.776 0 01-3.49 6.038c-.25.364-.345.907-.345 1.366.02 6.696.144 13.393.081 20.087-.036 3.756-.319 7.515-.583 11.264-.271 3.845-.649 7.682-.99 11.52-.086.974-.237 1.941-.31 2.915-.147 1.973-1.403 2.984-2.884 3.397-1.677.468-3.799-.332-4.515-1.835-.287-.606-.43-1.331-.445-2.007-.084-3.686-.095-7.372-.154-11.059-.077-4.852-.18-9.704-.264-14.554-.019-1.049-.003-2.1-.127-3.198-.093.18-.215.355-.271.547-.305 1.044-.626 2.086-.877 3.146-.11.47-.332.587-.778.587-3.78-.011-7.562-.002-11.343.002-.201 0-.402.025-.691.044.146.738.268 1.416.418 2.085.576 2.602 1.164 5.203 1.744 7.802.403 1.795.771 3.598 1.212 5.384.567 2.291-.613 4.493-2.86 5.232-1.841.605-3.47.285-4.483-.974a4.525 4.525 0 01-.798-1.53c-.956-3.298-1.86-6.611-2.796-9.915-.933-3.304-1.889-6.604-2.82-9.91-.228-.812-.488-1.628-.579-2.46-.341-3.193 1.829-5.607 5.038-5.652a99.212 99.212 0 014.344.011 13.713 13.713 0 003.95-.472c1.372-.366 2.762-.665 4.143-.992 0-.048 0-.093-.002-.14-.26 0-.522-.03-.778.004-1.844.242-3.684.522-5.53.74-1.38.162-2.769.311-4.156.358-1.817.064-3.264-1.342-3.393-3.161-.104-1.438.181-2.733 1.304-3.736.72-.642 1.594-.88 2.53-.979 2.372-.248 4.746-.502 7.114-.782 1.268-.149 2.531-.355 3.795-.54 3.43-.506 6.258-2.115 8.59-4.658 1.454-1.584 2.712-3.3 3.66-5.311l-1.323.707c.486-3.155 1.17-6.104 2.188-9.08zM47.554 82.847V95.49c0 .73-.002.724-.705.721-2.106-.004-4.215-.02-6.321.007-.55.007-.7-.172-.7-.707.017-8.297.015-16.591.017-24.888 0-1.207.129-1.117-1.128-1.121-.47-.002-.94-.01-1.41.009-.38.013-.55-.129-.547-.522.012-2.163.02-4.326.007-6.491-.002-.527.303-.57.694-.57 2.37.003 4.74 0 7.11.003 1.767.002 3.537.022 5.304.004.49-.004.683.14.622.651-.174 1.47.427 2.805.77 4.183.163.656.387 1.295.554 1.95.2.785.186.79-.608.792-.922 0-1.844-.007-2.766-.007-.902 0-.9 0-.9.929V82.85c.003-.002.005-.002.007-.002z" fill="#fff"/><path d="M42.245 23.003c-.079.628-.178 1.072-.185 1.517-.02 1.41-.011 2.82-.007 4.233.003 1.177.434 2.145 1.61 2.515 1.896.6 3.64-.395 3.663-2.404.009-.857.002-1.713.002-2.722.995.647 1.858 1.198 2.71 1.766 1.582 1.053 3.212 2.011 4.997 2.687 2.109.8 4.276.764 6.453.465 2.664-.366 5.153-1.32 7.587-2.43.293-.133.628-.178 1.089-.304-.204.714-.357 1.279-.524 1.842-1.374 4.617-2.093 9.343-2.337 14.145-.037.733-.077 1.465-.082 2.2-.002.386-.124.598-.53.637-.88.083-1.76.178-2.636.282-.402.048-.583-.036-.529-.508.292-2.577.55-5.158.83-7.736.063-.593-.007-.692-.656-.56-1.817.365-3.65.478-5.499.442-3.442-.066-6.588-1.153-9.605-2.735-3.16-1.659-5.991-3.803-8.868-5.88-1.264-.911-1.718-2.254-1.512-3.786.221-1.64 1.008-2.913 2.62-3.505.428-.16.933-.113 1.41-.16zm26.172 22.59c.402-3.144.692-6.31 1.245-9.427.44-2.484 1.212-4.909 1.822-7.366.104-.42.32-.673.76-.696 1.16-.06 2.323-.129 3.484-.147.172-.002.423.217.507.394.19.404.316.843.438 1.274.113.41.303.518.694.303.673-.37 1.365-.707 2.047-1.064.572-.299 1.829-.156 2.265.291.072.075.075.27.043.389-.522 1.916-1.105 3.817-1.566 5.747-.34 1.422-.52 2.88-.78 4.32-.05.27-.072.587-.226.795-1.48 2.014-3.169 3.822-5.413 5.004-1.476.777-3.085 1.152-4.73 1.39-.344.05-.44-.093-.43-.398.01-.262.003-.527.003-.789l-.163-.02zm-38.419-2.701c-2.726 0-5.451-.014-8.177.011-.529.005-.671-.167-.667-.673a315.4 315.4 0 000-6.371c-.004-.477.168-.606.624-.604 5.47.011 10.939.014 16.408-.002.556-.002.705.196.7.723a251.06 251.06 0 00.005 6.258c.007.522-.14.683-.664.678-2.744-.023-5.487-.011-8.233-.011.004-.005.004-.007.004-.01zm-10.29 9.915c-2.746 0-5.494-.01-8.24.009-.473.002-.63-.156-.626-.617.018-2.107.03-4.215.006-6.322-.006-.538.159-.716.701-.714 3.876.018 7.75.01 11.626.01 1.6 0 3.198.015 4.796-.008.474-.006.603.163.601.622a330.73 330.73 0 00.007 6.378c.004.48-.12.658-.633.653-2.746-.023-5.492-.011-8.238-.011zM8.9 81.293H.723c-.71 0-.723-.02-.72-.728l.01-6.147c.003-.724.032-.753.774-.753 5.413-.005 10.828-.002 16.24-.02.536-.003.721.156.715.703a295.48 295.48 0 00-.012 6.316c.005.45-.113.63-.596.626-2.744-.018-5.49-.009-8.234-.009v.012zm31.433-28.491c-2.707 0-5.417-.011-8.125.01-.5.004-.696-.116-.689-.654.023-2.145.016-4.29-.009-6.432-.005-.468.176-.565.599-.563 5.492.014 10.984.018 16.476.007.479 0 .61.163.608.62-.011 2.144-.007 4.287.018 6.431.004.484-.188.602-.637.6-2.746-.017-5.492-.007-8.238-.007-.003-.007-.003-.01-.003-.012zM9.388 42.899H1.327c-.775 0-.77 0-.77-.81v-6.032c0-.793.001-.797.765-.797 5.413 0 10.824.006 16.237-.012.524-.002.675.159.67.67a309.83 309.83 0 00-.001 6.314c.004.502-.132.676-.665.671-2.725-.027-5.449-.013-8.175-.013v.009zM29.46 81.284c-2.728 0-5.456-.01-8.181.009-.47.002-.613-.143-.608-.608.022-2.125.025-4.252.009-6.376-.005-.477.129-.664.637-.662 5.456.018 10.91.022 16.365.009.54-.002.671.197.667.694-.016 2.106-.016 4.213.011 6.319.007.51-.178.635-.657.63-2.746-.018-5.492-.009-8.238-.009-.005-.002-.005-.004-.005-.006zm-9.73-9.246c-2.764 0-5.528-.007-8.292.006-.436.003-.603-.135-.599-.58.018-2.143.025-4.288.014-6.43-.002-.484.217-.615.65-.615 1.768.005 3.536-.007 5.303-.01 3.517-.001 7.031-.013 10.548.005 1.421.007 1.2-.076 1.209 1.219.013 1.937-.005 3.873.02 5.81.007.475-.156.608-.617.606-2.746-.018-5.49-.01-8.236-.01v-.001zM8.882 62.701c-2.687 0-5.376.003-8.064 0-.797 0-.82-.025-.818-.83.002-2.029.025-4.06 0-6.09-.007-.551.181-.698.714-.698 5.434.013 10.864.011 16.298-.012.565-.002.743.152.732.73a218.2 218.2 0 00-.011 6.204c.004.513-.152.694-.674.692-2.726-.018-5.451-.01-8.177-.01v.014zm20.614-7.609c2.746 0 5.49.009 8.236-.01.47-.002.62.154.612.618a166.84 166.84 0 00-.002 4.513c.005.44-.149.612-.587.594-.432-.02-.866.025-1.298.007-.443-.018-.64.129-.648.608-.025 1.277-.046 1.277-1.36 1.277-4.327-.005-8.65-.007-12.976-.011-.796 0-.798-.003-.798-.818.002-2.05.02-4.1-.002-6.15-.004-.495.145-.649.64-.644 2.725.02 5.453.009 8.179.009.004 0 .004.004.004.007zm8.774-43.055c0 1.167-.014 2.333.007 3.499.009.436-.138.606-.583.601-1.429-.018-2.86.01-4.288-.009-1.234-.016-1.63-.662-1.09-1.77C34.503 9.87 36.697 5.386 38.89.9c.059-.118.109-.24.179-.353.445-.73 1.044-.734 1.46.016.398.723.752 1.471 1.114 2.213 1.873 3.826 3.747 7.652 5.618 11.479a3.9 3.9 0 01.24.571c.183.615-.145 1.205-.782 1.227-1.652.057-3.307.048-4.96.05-.421 0-.385-.334-.385-.617-.002-1.767 0-3.535-.002-5.304 0-.509.002-1.017-.025-1.523-.052-.986-.703-1.63-1.598-1.61-.861.02-1.467.69-1.476 1.655-.011 1.11-.002 2.22-.002 3.329-.005.004-.002.004 0 .004zm50.49 9.859c-1.607-.649-3.169-1.284-4.73-1.912a7781.585 7781.585 0 00-12.067-4.841c-.28-.113-.583-.204-.375-.581.187-.341.185-1.096.845-.716.877.506 1.343.187 1.95-.48 1.623-1.785 3.673-2.865 6.087-3.107 2.077-.208 3.941.43 5.544 1.767 2.739 2.283 3.67 6.516 2.746 9.87zm-7.361 5.908c-4.722.219-8.148-2.581-8.826-6.292-.226-1.241-.172-2.43.192-3.616.217-.706.26-.715.94-.437 1.616.66 3.228 1.325 4.846 1.978 2.766 1.119 5.53 2.24 8.306 3.336.502.199.515.436.29.852-1.45 2.674-3.707 4.05-5.748 4.179z" fill="#fff"/><path d="M44.029 22.488c-1.117-.69-2.116-1.315-3.124-1.926-2.145-1.297-1.957-1.182-1.962-3.467-.004-2.782.003-5.564 0-8.344 0-.404.068-.798.507-.9.278-.063.698-.067.872.098.224.21.36.612.366.933.032 1.73.011 3.458.011 5.187 0 1.241.014 2.482.003 3.722-.005.4.126.658.486.864 1.055.61 2.081 1.27 3.137 1.88.795.459 1.475.977 1.516 2.003a.565.565 0 00.147.357c.628.587.669 1.34.655 2.129-.02 1.259-.009 2.517-.006 3.779.002.777-.276 1.421-1.006 1.742-.721.319-1.505.33-2.138-.163-.332-.26-.66-.752-.678-1.152a60.925 60.925 0 01-.005-5.183c.018-.4.418-.793.676-1.166.1-.138.29-.215.543-.393z" fill="#fff"/></svg>