<svg width="103" height="77" fill="none" xmlns="http://www.w3.org/2000/svg"><path d="M26.744 38.496C26.746 17.29 43.902-.016 64.908 0c20.987.016 38.088 17.303 38.09 38.504C103 59.71 85.84 77.025 64.843 76.998c-20.982-.023-38.101-17.326-38.099-38.502zM49.668 12.77c-1.003.705-1.964 1.303-2.838 2.01-9.106 7.382-13.006 16.943-11.513 28.587.819 6.378 3.613 11.932 8.131 16.497 7.455 7.531 16.48 10.504 26.896 8.655 7.743-1.374 13.965-5.448 18.599-11.814 4.92-6.757 6.747-14.336 5.42-22.632-.939-5.87-3.472-10.972-7.451-15.361-.44-.487-.94-.79-1.61-.723-.788.079-1.392.463-1.682 1.214-.32.825-.049 1.539.519 2.176 3.116 3.492 5.15 7.543 6.132 12.12.249 1.158.382 2.34.583 3.593-.738 0-1.349-.011-1.957.003-1.19.025-1.955.771-1.95 1.888.002 1.12.774 1.86 1.961 1.877.611.007 1.22.002 1.904.002-.615 6.915-3.38 12.708-8.375 17.38-4.396 4.11-9.627 6.393-15.692 6.914 0-.702.012-1.313-.002-1.927-.028-1.194-.782-1.977-1.877-1.97-1.1.007-1.846.8-1.858 1.986-.007.611 0 1.223 0 1.837-12.017-.514-23.322-11.122-24.007-24.22.632 0 1.268.06 1.888-.02.452-.058.943-.211 1.307-.478.607-.44.784-1.328.505-2.05-.29-.754-.85-1.182-1.662-1.212-.682-.024-1.367-.005-2.093-.005.33-4.257 1.558-8.129 3.702-11.7 2.14-3.564 4.952-6.47 8.548-8.622l-1.565 4.314 3.045 1.064 3.633-10.42c-3.476-1.238-6.879-2.448-10.318-3.671l-1.056 3.082c1.57.535 3.105 1.063 4.733 1.626zm11.155 26.338c.152.522.249 1.099.482 1.615.871 1.93 2.955 2.841 4.88 2.176 1.863-.644 3.02-2.614 2.58-4.479-.1-.424-.005-.658.28-.945a4938.68 4938.68 0 0010.933-11.021c.853-.862.9-2.13.129-2.895-.747-.741-1.99-.667-2.831.179-3.592 3.617-7.177 7.239-10.77 10.854-.208.209-.522.56-.692.512-.565-.157-1.194-.025-1.694-.55-2.308-2.423-4.657-4.807-7-7.197-.656-.671-1.52-.824-2.319-.444a1.742 1.742 0 00-.965 1.972c.096.458.369.938.696 1.276a472.712 472.712 0 006.328 6.4c.355.353.5.642.286 1.14-.175.418-.21.893-.323 1.407zm-48.828 1.154c-3.396 0-6.792.003-10.187-.002-.856-.002-1.584-.584-1.766-1.376a1.759 1.759 0 011.026-1.989c.272-.116.595-.157.894-.157 6.715-.01 13.43-.01 20.144-.005 1.044 0 1.69.48 1.88 1.344.19.85-.209 1.687-1.025 2.035-.27.116-.595.143-.894.143-3.357.01-6.716.007-10.072.007zm1.491-14.805c-1.957 0-3.912.01-5.869-.004a1.785 1.785 0 01-1.71-1.372 1.766 1.766 0 01.968-1.967c.267-.123.59-.177.89-.177 3.815-.011 7.632-.013 11.448-.004 1.122.002 1.91.776 1.89 1.805-.02.994-.818 1.715-1.92 1.717-1.898.007-3.797.002-5.697.002zm-.02 29.615c-1.882 0-3.763.004-5.641-.003-1.135-.002-1.942-.734-1.948-1.751-.007-1.032.77-1.78 1.918-1.785 3.799-.011 7.6-.011 11.4 0 1.177.005 1.91.707 1.908 1.77 0 1.018-.812 1.762-1.937 1.767-1.901.006-3.8.004-5.7.002z" fill="#973B29"/></svg>