<svg width="83" height="89" fill="none" xmlns="http://www.w3.org/2000/svg"><path d="M55.744 79.32l6.105 6.116c-.577.238-1.104.496-1.656.67-.314.1-.671.09-1.008.09-18.265.002-36.528-.003-54.792.006-1.943 0-3.348-.819-4.074-2.631C.08 82.977.01 82.279.01 81.63-.005 70.382 0 59.135.002 47.89.002 37.193 0 26.496.005 15.8c0-2.132 1.06-3.653 2.985-4.254.387-.12.814-.148 1.224-.157.98-.022 1.959.02 2.936-.018.516-.02.678.13.676.664-.02 4.222-.011 8.443-.011 12.667V78.83c0 .825 0 .825.8.825 15.232 0 30.466.005 45.697-.009.489-.002 1.07.237 1.432-.327zM83 78.856c-.07 1.722-.737 3.25-1.721 4.647-1.715 2.438-3.852 4.355-6.752 5.24-1.857.566-3.479.212-4.906-1.23A3199.527 3199.527 0 0048.879 66.7c-1.235-1.226-1.85-2.738-2.535-4.24-2.332-5.103-4.635-10.221-6.946-15.334-.218-.482-.485-.95-.63-1.453-.08-.282-.042-.678.103-.928.199-.344.597-.346.96-.182 1.426.641 2.85 1.278 4.274 1.928 4.879 2.232 9.762 4.456 14.63 6.71a5.214 5.214 0 011.479 1.01c7.179 7.18 14.336 14.381 21.508 21.569.853.85 1.25 1.862 1.278 3.075zM44.602 50.254a8.71 8.71 0 01-.172.144c.113.284.206.577.34.853a4722.83 4722.83 0 004.91 10.15c.369.762.79.833 1.321.148.353-.452.629-.989.837-1.528.448-1.156 1.226-1.89 2.39-2.309.675-.243 1.349-.6 1.898-1.057.577-.48.453-.865-.217-1.178-2.86-1.345-5.72-2.693-8.586-4.026-.898-.421-1.814-.8-2.72-1.197zm34.015 31.108c.02-.823-.496-1.353-1.272-1.307-1.431.081-3.112 1.755-3.218 3.202-.061.837.443 1.365 1.282 1.342 1.443-.039 3.171-1.781 3.207-3.237zM31.734 18.414H15.58c-2.405 0-3.843-1.44-3.845-3.84-.003-1.191-.01-2.385.002-3.577.02-1.904.837-2.813 2.69-3.205 1.3-.275 2.598-.602 3.85-1.046.917-.325 1.634-1.042 2.112-1.897 1.07-1.915 2.746-3.059 4.738-3.716 4.863-1.604 9.702-1.565 14.436.523 1.42.628 2.562 1.608 3.37 2.989 1.04 1.783 2.73 2.576 4.687 2.915.74.128 1.483.269 2.205.473 1.092.31 1.762 1.076 1.81 2.209.074 1.72.122 3.448.013 5.163-.109 1.742-1.672 3-3.53 3.005-3.937.011-7.872.004-11.806.004h-4.578zm-.016-7.683c2.21.002 4.031-1.806 4.054-4.026.025-2.238-1.873-4.15-4.094-4.126-2.18.025-3.997 1.893-3.992 4.108.002 2.213 1.825 4.04 4.032 4.044zm31.669 40.925c-.33-.298-.565-.505-.796-.72-1.194-1.098-2.708-1.614-4.133-2.287-.8-.378-1.617-.72-2.404-1.126-.185-.096-.353-.373-.387-.592-.06-.386-.016-.791-.016-1.19 0-11.15 0-22.3.003-33.452 0-.907 0-.907.932-.907.884 0 1.769-.01 2.655 0 2.461.03 4.185 1.774 4.185 4.237a91298.8 91298.8 0 010 35.495c-.003.134-.02.262-.039.542z" fill="#fff"/><path d="M16.026 34.083c0 1.146-.019 2.293.027 3.437.004.125.375.334.579.338 1.524.028 3.049.014 4.57.014.415 0 .829-.002 1.243.005.378.006.586-.162.527-.549-.093-.623.194-1.08.567-1.53.476-.573.914-1.178 1.412-1.822.075.152.133.216.133.277 0 1.267.055 2.539-.03 3.801-.08 1.224-.931 1.933-2.155 1.938-2.257.009-4.517.009-6.774 0-1.353-.005-2.176-.84-2.18-2.202-.01-2.288-.012-4.578.002-6.866.007-1.176.654-2.011 1.789-2.098 1.264-.095 2.542-.022 4.01-.022-.554.5-.984.898-1.425 1.285-1.147 1.012-1.01.762 0 1.694.871.806.88.799 1.753-.011 1.604-1.487 3.203-2.98 4.807-4.467.742-.69 1.653-.726 2.135-.089.423.557.344 1.251-.253 1.895-1.808 1.951-3.685 3.841-5.418 5.857-1.39 1.617-2.877 1.81-4.31-.098-.24-.319-.537-.594-.806-.89l-.203.103zm3.431 21.587c-1.129 0-2.258.01-3.384-.002-1.271-.014-2.129-.867-2.133-2.136-.009-2.306-.005-4.613.005-6.921.004-1.244.746-2.12 1.995-2.15a158.38 158.38 0 017.163 0c1.165.028 1.936.83 1.961 2.011.05 2.363.056 4.726.011 7.09-.025 1.328-.907 2.101-2.23 2.106-1.13.009-2.26.004-3.388.002 0 .002 0 .002 0 0zm-.012-2.65c.808 0 1.618-.018 2.425.007.45.014.595-.173.593-.603-.014-1.57-.014-3.136-.002-4.706.002-.445-.138-.648-.62-.643-1.56.02-3.122.018-4.68-.003-.439-.004-.609.153-.606.59.011 1.605.011 3.213-.003 4.82-.004.429.184.554.582.543.769-.018 1.54-.005 2.311-.005zm.115 6.805c1.091 0 2.181-.002 3.274 0 1.382.005 2.207.799 2.253 2.204.029.887.006 1.777.006 2.666 0 1.342.012 2.686-.006 4.028-.02 1.522-.812 2.306-2.312 2.31-2.162.008-4.325.01-6.487-.001-1.601-.007-2.343-.762-2.348-2.368-.005-2.213-.005-4.424-.002-6.637.002-1.34.846-2.19 2.182-2.202.584-.004 1.165 0 1.749 0h1.692zm-3.005 5.589c0 .812.007 1.626-.003 2.438-.004.4.145.575.568.57 1.56-.015 3.12-.017 4.68.003.489.007.67-.175.665-.662-.016-1.549-.016-3.1 0-4.649.005-.45-.133-.65-.61-.643-1.58.018-3.158.015-4.737 0-.414-.005-.574.15-.566.564.014.791.003 1.585.003 2.379zm23.03-32.571c3.067 0 6.132 0 9.2.003.741 0 .75.013.75.766 0 .68-.011 1.362.005 2.043.009.395-.104.575-.543.575a5148.68 5148.68 0 00-18.848-.007c-.464 0-.636-.145-.613-.62.031-.717.04-1.44 0-2.157-.032-.548.24-.612.683-.61 3.121.012 6.245.007 9.366.007zm4.44 34.329c-.203.016-.384.043-.565.043-4.361.002-8.724.002-13.085 0-.83 0-.83-.005-.83-.848 0-.662.013-1.324-.007-1.986-.011-.38.109-.546.511-.546 4.06.01 8.123.002 12.183.016.165 0 .411.132.482.273.45.912.864 1.845 1.282 2.773.027.063.016.145.03.275zM36.96 51.703c-.216.016-.415.046-.611.046-2.052.002-4.101-.01-6.153.011-.482.005-.68-.134-.658-.644.034-.737.023-1.476.002-2.213-.011-.382.113-.553.511-.55 1.695.011 3.387-.005 5.08.016.188.002.471.125.548.275.455.912.862 1.847 1.278 2.777.025.062.002.146.002.282z" fill="#fff"/></svg>