<svg width="278" height="66" fill="none" xmlns="http://www.w3.org/2000/svg"><g clip-path="url(#clip0_1_39)"><path d="M.004 39.229H34.89c0 1.319.106 2.602-.028 3.858-.15 1.393-1.284 2.246-2.8 2.262-2.806.028-5.61.008-8.42.012-2.09.004-2.95.86-2.95 2.938-.004 5.042 0 10.084-.004 15.123 0 1.97-.625 2.574-2.627 2.578-.463 0-.925.004-1.387 0-1.707-.012-2.382-.683-2.382-2.416-.008-4.877-.004-9.753-.004-14.63 0-.328.012-.66-.004-.987-.075-1.682-1.007-2.598-2.706-2.61-2.805-.02-5.61-.008-8.419-.02C1.035 45.33.02 44.315.004 42.174c-.008-.951 0-1.903 0-2.945zm34.926-3.85H0v3.048h34.93V35.38zm-21.364-1.113H0V7.36l13.566 5.425v21.48z" fill="#111526"/><path d="M17.876 34.266H34.93V0L17.876 7.36v26.906z" fill="#878886"/><path d="M23.379 34.266H9.102V20.513l14.277-3.665v17.418z" fill="#973B29"/><path d="M30.11 15.905h-2.453v2.452h2.454v-2.452zm0 4.908h-2.453v2.452h2.454v-2.452zm-12.234 4.742h-2.453v2.452h2.453v-2.452z" fill="#fff"/><path d="M204.098 12.762c1.588 0 3.129-.02 4.67.027.158.004.403.38.442.612.371 2.109.703 4.225 1.047 6.342l1.292 7.988c.02.122.075.237.237.363.067-.383.142-.762.197-1.145a3979.07 3979.07 0 002.035-13.599c.063-.434.213-.616.691-.604 1.474.035 2.951.012 4.468.012v22.834h-3.492v-14.51c-.047-.005-.095-.005-.142-.009-.739 4.833-1.474 9.67-2.216 14.527h-3.489c-.825-4.944-1.643-9.867-2.465-14.787-.039.004-.079.004-.118.008v14.763h-3.169c.012-7.565.012-15.142.012-22.822zM83.904 35.671h-9.062v2.622c-1.209 0-2.358.008-3.508-.016-.083 0-.23-.24-.233-.37-.016-1.821-.012-3.638-.012-5.49.597-.031 1.15-.015 1.69-.106 1.123-.19 1.561-.703 1.565-1.836.012-5.615.012-11.234.016-16.849 0-.868 0-.868.87-.868h10.594v18.74c0 .833.004.833.854.833.15 0 .3.012.45-.004.403-.04.58.102.573.537-.02 1.63-.02 3.257 0 4.888.004.423-.15.565-.565.553a47.5 47.5 0 00-2.706 0c-.447.012-.545-.174-.533-.573.023-.67.007-1.35.007-2.06zm-1.793-19.47h-4.117v16.078h4.117V16.201zm77.833 43.387v3.755h-3.501v-2.547c0-1.204 0-1.18-1.177-1.216-.683-.02-1.375-.063-2.046-.19-2.244-.426-3.342-2.08-3.429-4.083a87.443 87.443 0 010-8.272c.118-2.333 1.505-4 4.175-4.201.791-.06 1.581-.103 2.434-.154.02-.352.043-.707.067-1.106h3.441c.02.375.04.727.063 1.106.794.051 1.561.09 2.323.15 2.667.213 4.275 1.852 4.338 4.56.063 2.528.134 5.063-.02 7.582-.17 2.807-1.553 4.556-5.187 4.612-.458.011-.928.004-1.481.004zm-3.501-3.242v-8.683c0-1.844 0-1.844-1.856-1.666-.775.075-1.32.537-1.328 1.31-.031 2.587-.031 5.177.004 7.763.008.703.534 1.209 1.233 1.264.612.051 1.232.012 1.947.012zm3.54.016c.51 0 .96.003 1.406 0 1.182-.008 1.743-.462 1.766-1.643.052-2.357.04-4.715.004-7.072-.012-.96-.442-1.524-1.177-1.607-.648-.071-1.312-.016-1.999-.016v10.338z" fill="#162638"/><path d="M206.583 41.59v17.76c0 .877 0 .877.873.877.913 0 .913 0 .913.893 0 1.413-.012 2.827.008 4.24.004.411-.119.577-.55.565a44.384 44.384 0 00-2.512 0c-.427.012-.565-.158-.553-.569.024-.635.004-1.275.004-1.942h-8.707v2.495c-1.146 0-2.212.012-3.279-.016-.103-.004-.288-.252-.288-.387-.02-1.626-.024-3.257.008-4.884.004-.13.276-.355.43-.363 2.442-.095 2.714-.367 2.714-2.804V41.594c3.639-.004 7.237-.004 10.939-.004zm-7.474 3.183V60.18h3.911V44.773h-3.911z" fill="#973B29"/><path d="M94.614 35.62v-.71c0-7.136.008-14.267-.012-21.402 0-.573.127-.778.74-.762 1.65.043 3.306.004 4.961.027a9.015 9.015 0 011.596.17c1.861.372 3.085 1.489 3.318 3.365.178 1.425.147 2.902.02 4.339-.107 1.192-.79 2.156-1.928 2.776.103.095.15.166.218.197 1.114.53 1.738 1.45 2.002 2.61.427 1.884.435 3.795.06 5.674-.447 2.235-1.972 3.585-4.255 3.696-2.204.107-4.417.02-6.72.02zm3.722-3.337c.81 0 1.576.044 2.338-.011.826-.06 1.34-.585 1.371-1.426a45.939 45.939 0 00-.008-3.712c-.039-.9-.608-1.547-1.442-1.642-.734-.083-1.485-.016-2.26-.016v6.807zm0-10.175c.715-.055 1.402-.051 2.066-.17.695-.122 1.193-.608 1.24-1.307a23.92 23.92 0 000-3.19c-.039-.612-.438-1.13-1.078-1.208-.731-.091-1.482-.02-2.228-.02v5.895zM132.823 35.6h-3.583V16.19h-4.132v.738c0 4.415.016 8.833-.016 13.248a9.151 9.151 0 01-.332 2.337c-.481 1.8-1.75 2.808-3.559 3.092-.822.126-1.667.099-2.501.118-.41.012-.604-.177-.588-.627.031-.873.008-1.75.008-2.705.403 0 .734.004 1.07 0 1.596-.024 2.228-.652 2.228-2.239.004-5.508 0-11.016 0-16.525v-.809h11.405V35.6zm25.6-.004h-3.714v-.793c0-2.745-.012-5.485.012-8.23.004-.509-.107-.73-.668-.702-.9.043-1.805.035-2.706.004-.482-.016-.624.146-.62.624.02 2.764.008 5.528.008 8.292v.801h-3.627V12.77c1.103 0 2.209-.016 3.315.027.11.004.296.367.3.565.024 1.844.016 3.684.016 5.528v3.633h3.974v-.762c0-2.788.012-5.572-.012-8.36-.004-.513.15-.667.66-.647 1.003.035 2.011.012 3.066.012-.004 7.632-.004 15.205-.004 22.83zM278 12.88v22.716h-3.634v-9.29c-.771.074-1.454.082-2.11.216a1.462 1.462 0 00-1.15 1.106 7.074 7.074 0 00-.229 1.516c-.031 1.477-.016 2.958-.02 4.434 0 .257-.003.514-.031.77-.138 1.284-.138 1.284-1.414 1.284h-2.572c.608-2.515.213-5.023.407-7.503.114-1.488.565-2.874 2.082-3.573-.016-.079-.012-.138-.036-.154-1.339-.83-1.959-2.12-2.023-3.601-.067-1.528-.055-3.096.194-4.6.34-2.026 1.639-3.175 3.713-3.293 2.24-.127 4.5-.028 6.823-.028zm-3.69 3.281c-.628 0-1.205-.023-1.781.004-.913.048-1.458.435-1.521 1.343-.095 1.358-.06 2.732.004 4.095.027.647.474 1.137 1.114 1.27.695.147 1.422.155 2.184.23V16.16zm-14.941 19.435h-3.733v-9.654h-4.006v9.65h-3.666V13.611c0-.85 0-.85.826-.85h2.813v9.746h4.017v-9.741c1.186 0 2.296-.012 3.406.015.114.004.257.21.332.348.051.103.011.253.011.379v22.088zm-26.571 0h-3.701v-19.41h-4.006v19.406h-3.607V12.805c.206-.016.391-.04.577-.04 3.374-.003 6.743.008 10.117-.011.478-.004.684.095.684.628-.016 7.241-.012 14.483-.012 21.724-.008.147-.036.293-.052.49zm-41.646-11.411c0-1.927-.023-3.858.008-5.785.024-1.31.178-2.618.933-3.743 1.252-1.868 3.144-2.239 5.21-2.108 1.667.106 3.086.726 4.01 2.195.723 1.149.857 2.46.865 3.763.028 3.814.056 7.628-.019 11.439-.02 1.086-.261 2.211-.625 3.242-.458 1.303-1.521 2.076-2.86 2.456-1.422.398-2.844.363-4.247-.048-1.698-.497-3.065-2.219-3.132-4.158-.083-2.416-.02-4.837-.02-7.253h-.123zm3.678-.004c0 1.327-.008 2.657.004 3.984.008.963 0 1.93.083 2.886.087.98.767 1.524 1.746 1.524.984 0 1.62-.548 1.739-1.528.055-.466.094-.94.094-1.41.008-3.557.008-7.114 0-10.668 0-.514-.031-1.027-.09-1.536-.119-1.015-.708-1.528-1.715-1.536-1.043-.008-1.651.505-1.786 1.54-.047.36-.071.726-.071 1.09-.004 1.883-.004 3.77-.004 5.654zm-12.87-11.419v9.374l.142.059c.103-.186.209-.364.3-.553 1.327-2.756 2.663-5.508 3.966-8.276.214-.45.451-.644.964-.616.937.047 1.881.012 2.939.012-.138.316-.225.54-.331.762-1.462 2.98-2.92 5.966-4.397 8.935-.19.383-.198.695-.044 1.086 1.509 3.779 2.995 7.566 4.488 11.352.083.214.162.43.273.73-1.241 0-2.394.02-3.544-.023-.158-.008-.36-.316-.442-.525-1-2.547-1.98-5.102-2.963-7.652-.075-.19-.158-.38-.297-.715-.474.987-1.098 1.718-1.054 2.796.075 1.776.019 3.557.019 5.334v.742h-3.646c-.012-.213-.032-.438-.032-.66 0-7.134.008-14.27-.015-21.404 0-.632.189-.806.798-.774.944.051 1.884.016 2.876.016zM45.225 35.636v-.668c0-7.154.008-14.313-.012-21.468 0-.588.154-.758.751-.75 2.706.031 5.412.012 8.118.012h.688c0 1.058.015 2.077-.024 3.088-.004.102-.344.268-.526.272-1.505.024-3.006.012-4.511.012h-.747v5.157c.731.035 1.474.031 2.213.11 2.927.304 4.258 1.343 4.618 4.233.257 2.077.162 4.245-.115 6.326-.288 2.187-1.849 3.482-4.06 3.632-1.881.127-3.778.036-5.67.044h-.723zm3.725-3.305c.542 0 1.051.023 1.561-.004 1.19-.063 1.718-.569 1.758-1.765a68.02 68.02 0 000-4.115c-.028-1.034-.518-1.638-1.383-1.73-.632-.062-1.272-.01-1.936-.01v7.624zm197.742 3.273h-3.685c-.182-1.18-.388-2.334-.522-3.494-.051-.45-.217-.577-.644-.569a58.35 58.35 0 01-3.219-.004c-.486-.016-.621.194-.676.624-.146 1.141-.332 2.278-.502 3.44h-3.377c.233-1.493.458-2.947.691-4.396.948-5.918 1.904-11.837 2.832-17.76.083-.53.257-.715.806-.695a52.15 52.15 0 003.994-.004c.593-.028.727.233.802.71.455 2.915.925 5.829 1.391 8.743.675 4.229 1.351 8.457 2.022 12.686.036.21.052.419.087.72zm-6.431-18.001l-.123.015c-.529 3.546-1.062 7.096-1.595 10.662h3.326l-1.608-10.677zm-67.917 18.001h-3.713c-.178-1.141-.399-2.29-.522-3.447-.055-.525-.257-.628-.727-.616a47.537 47.537 0 01-3.093-.004c-.506-.02-.668.174-.727.644-.142 1.14-.328 2.274-.498 3.415h-3.385c.387-2.365.77-4.683 1.142-7.005.809-5.074 1.623-10.151 2.417-15.23.067-.434.194-.623.68-.611 1.564.031 3.128.012 4.772.012 1.213 7.613 2.426 15.186 3.654 22.842zm-8.185-7.317h3.33c-.541-3.593-1.071-7.135-1.604-10.677-.039 0-.083.005-.122.005-.534 3.533-1.063 7.067-1.604 10.672zm-39.284 35.071h-3.496V44.781h-3.824v18.57h-3.485v-21.77h10.805v21.776zm13.376-10.898c0-2.266-.11-4.54.028-6.803.162-2.622 1.9-4.193 4.527-4.363 1.102-.071 2.189.024 3.208.501 1.699.794 2.501 2.24 2.552 4 .111 4.063.103 8.134.111 12.201 0 .656-.087 1.327-.229 1.967-.407 1.828-1.494 3.052-3.354 3.486-1.569.364-3.121.332-4.563-.458-1.908-1.042-2.323-2.862-2.37-4.813-.048-1.903-.012-3.81-.012-5.718h.102zm6.858.048c0-2.097.02-4.198-.007-6.294-.016-1.074-.597-1.678-1.521-1.714-1.15-.047-1.822.407-1.837 1.56a508.92 508.92 0 000 12.84c.011 1.055.758 1.604 1.742 1.556.987-.047 1.596-.647 1.612-1.717.035-2.077.011-4.154.011-6.231z" fill="#162638"/><path d="M167.829 63.343v-21.76h9.082c0 .943.02 1.879-.024 2.815-.008.122-.351.32-.545.323-1.418.028-2.832.016-4.251.016h-.754v4.908c.703.043 1.402.087 2.101.126 2.908.154 4.239 1.702 4.48 4.186.182 1.88.131 3.818-.102 5.694-.273 2.191-1.596 3.443-3.852 3.652-2.019.186-4.069.04-6.135.04zm3.48-3.12c.537 0 1.004.02 1.474-.004 1.169-.055 1.687-.545 1.722-1.71a74.92 74.92 0 000-3.909c-.02-.916-.403-1.504-1.102-1.599-.684-.09-1.387-.02-2.094-.02v7.242z" fill="#973B29"/><path d="M138.777 12.762v8.52c.837.048 1.643.068 2.445.139 2.706.245 4.255 1.63 4.492 4.39a27.962 27.962 0 01-.111 5.892c-.328 2.547-2.113 3.909-4.689 3.929-1.908.016-3.82.004-5.823.004v-.719c0-7.135.008-14.266-.016-21.401-.004-.64.194-.798.802-.762.936.043 1.877.008 2.9.008zm.039 19.569c.526 0 1.012.015 1.498-.004 1.236-.052 1.777-.55 1.813-1.773a68.7 68.7 0 000-4.11c-.028-1.035-.522-1.64-1.387-1.726-.632-.063-1.272-.012-1.928-.012.004 2.559.004 5.054.004 7.625zm-80.203 3.384c0-1.102.008-2.022-.004-2.942-.004-.355.155-.434.475-.407.32.028.647.028.963-.016 1.521-.225 2.181-1.275 1.727-2.771-1.027-3.4-2.066-6.8-3.101-10.2-.605-1.982-1.213-3.96-1.818-5.942-.055-.178-.094-.363-.17-.675.949 0 1.846.055 2.726-.016.74-.06 1.024.193 1.225.904a347.884 347.884 0 003.662 12.083c.13-.502.269-1 .391-1.505.897-3.652 1.802-7.3 2.679-10.957.09-.387.225-.533.632-.521 1.023.027 2.05.008 3.117.008-.024.229-.02.379-.06.517-1.706 6.069-3.4 12.138-5.143 18.195-.253.873-.687 1.706-1.13 2.507-.672 1.22-1.79 1.73-3.156 1.734-.98.008-1.96.004-3.015.004zm58.796-3.404c0 1.058-.012 1.978.004 2.894.007.478-.301.427-.605.427h-9.287v-.739c0-7.115.011-14.226-.016-21.342-.004-.667.189-.817.829-.809 2.793.035 5.586.028 8.375.004.514-.004.743.11.707.671a17.219 17.219 0 000 2.057c.028.51-.15.676-.659.668-1.569-.024-3.137-.008-4.705-.008h-.81v6.27h3.35c1.537 0 1.537 0 1.537 1.548v1.737h-4.887v6.622h6.167zm9.686 9.105c2.355.123 4.654.127 6.918.395 1.619.194 2.587 1.382 2.97 2.934.198.798.265 1.647.261 2.472-.008 1.492.036 3.008-.205 4.473-.344 2.081-1.814 3.27-3.915 3.444-.83.067-1.663.09-2.56.134v8.075h-3.469V41.416zm3.488 10.575c.522 0 1.008.007 1.498 0 1.102-.02 1.639-.486 1.679-1.588.047-1.346.035-2.693.004-4.04-.024-.892-.455-1.5-1.138-1.575-.668-.07-1.351-.015-2.043-.015v7.217z" fill="#162638"/><path d="M180.577 63.402c0-1.003-.016-1.9.016-2.796.004-.126.229-.312.379-.347.245-.056.514.008.77-.008 1.557-.09 2.3-1.137 1.849-2.638-1.102-3.668-2.22-7.332-3.334-10.996-.431-1.41-.869-2.82-1.3-4.23-.075-.24-.13-.489-.221-.84 1.154 0 2.236-.016 3.318.023.123.004.285.328.344.53 1.114 3.73 2.216 7.466 3.319 11.197.059.202.122.407.292.624.253-1.007.509-2.01.758-3.016.727-2.95 1.458-5.895 2.161-8.849.091-.383.222-.541.628-.53.98.025 1.964.009 3.026.009-.541 1.943-1.054 3.794-1.576 5.646-1.153 4.095-2.283 8.194-3.492 12.272-.277.928-.758 1.82-1.272 2.646-.522.837-1.347 1.303-2.378 1.303h-3.287z" fill="#973B29"/><path d="M261.613 12.79h3.583v22.786h-3.583V12.79zM88.8 12.797h3.555v22.791h-3.556v-22.79zm123.448 35.237c-.735 0-1.395.024-2.054-.016-.139-.008-.372-.229-.383-.367-.166-1.998-.301-3.996-.447-6.057h3.386c-.162 2.112-.328 4.225-.502 6.44zm-105.198.008c-.726 0-1.39.02-2.046-.016-.142-.008-.375-.229-.387-.363-.166-2.002-.296-4.004-.443-6.069h3.386c-.166 2.112-.332 4.225-.51 6.448zm106.699-6.464h3.315c-.056.952-.107 1.88-.17 2.808-.071.999-.174 1.998-.225 3-.024.474-.17.668-.688.668-1.821 0-1.825.02-1.947-1.781-.095-1.386-.19-2.772-.281-4.158-.012-.166-.004-.332-.004-.537zm-101.859.016l-.348 4.647c-.031.427-.067.853-.083 1.28-.012.367-.162.513-.549.529-1.967.087-1.955.095-2.07-1.848-.091-1.516-.209-3.029-.32-4.608h3.37z" fill="#162638"/></g><defs><clipPath id="clip0_1_39"><path fill="#fff" d="M0 0h278v66H0z"/></clipPath></defs></svg>